<?xml version="1.0" standalone="no"?>
<!DOCTYPE svg PUBLIC "-//W3C//DTD SVG 1.1//EN" "http://www.w3.org/Graphics/SVG/1.1/DTD/svg11.dtd" >
<!--
2013-9-30: Created.
-->
<svg>
<metadata>
Created by iconfont
</metadata>
<defs>

<font id="iconfont" horiz-adv-x="1024" >
  <font-face
    font-family="iconfont"
    font-weight="500"
    font-stretch="normal"
    units-per-em="1024"
    ascent="896"
    descent="-128"
  />
    <missing-glyph />
    
    <glyph glyph-name="x" unicode="x" horiz-adv-x="1001"
d="M281 543q-27 -1 -53 -1h-83q-18 0 -36.5 -6t-32.5 -18.5t-23 -32t-9 -45.5v-76h912v41q0 16 -0.5 30t-0.5 18q0 13 -5 29t-17 29.5t-31.5 22.5t-49.5 9h-133v-97h-438v97zM955 310v-52q0 -23 0.5 -52t0.5 -58t-10.5 -47.5t-26 -30t-33 -16t-31.5 -4.5q-14 -1 -29.5 -0.5
t-29.5 0.5h-32l-45 128h-439l-44 -128h-29h-34q-20 0 -45 1q-25 0 -41 9.5t-25.5 23t-13.5 29.5t-4 30v167h911zM163 247q-12 0 -21 -8.5t-9 -21.5t9 -21.5t21 -8.5q13 0 22 8.5t9 21.5t-9 21.5t-22 8.5zM316 123q-8 -26 -14 -48q-5 -19 -10.5 -37t-7.5 -25t-3 -15t1 -14.5
t9.5 -10.5t21.5 -4h37h67h81h80h64h36q23 0 34 12t2 38q-5 13 -9.5 30.5t-9.5 34.5q-5 19 -11 39h-368zM336 498v228q0 11 2.5 23t10 21.5t20.5 15.5t34 6h188q31 0 51.5 -14.5t20.5 -52.5v-227h-327z" />
    

    
    <glyph glyph-name="tongbu" unicode="&#42498;" d="M881.356744 650.798439H265.580193v47.851844c0 42.309618-41.218774 63.822584-67.410296 34.351366l-80.97115-92.606141c-14.167674-15.942087-18.925025-36.167734-17.627472-55.511291-0.037862-0.960885 0.045025-4.113691 0.045025-5.082762 0-39.069831 32.299637-73.288167 71.370491-73.288167H881.356744c39.070854 0 71.036893 33.073256 71.036893 72.143087 0.001023 39.068807-31.966039 72.142064-71.036893 72.142064zM924.485007 198.95349399999998c0 39.070854-32.279171 85.501326-71.350025 85.501326H142.764006c-39.070854 0-71.036893-32.56058-71.036893-71.631434 0-39.069831 31.967062-71.631434 71.036893-71.631434h605.816712v-73.30147c0-42.310641 46.199205-63.822584 72.390727-34.351366l83.460854 92.606142c14.167674 15.942087 20.169365 38.426171 18.872836 57.769728 0.038886 0.960885 1.179872 14.069437 1.179872 15.038508z"  horiz-adv-x="1024" />

    
    <glyph glyph-name="chenggong" unicode="&#42499;" d="M512.002047 829.034842c-244.771773 0-445.037912-200.26614-445.037913-445.037912 0-244.766656 200.26614-445.031772 445.037913-445.031772 244.766656 0 445.031772 200.26614 445.031772 445.031772 0.001023 244.771773-200.265116 445.037912-445.031772 445.037912z m0-823.317374c-209.166857 0-378.281509 169.114652-378.28151 378.280485 0 209.166857 169.114652 378.281509 378.28151 378.28151 209.165834 0 378.280486-169.114652 378.280485-378.28151 0-209.165834-169.114652-378.280486-378.280485-378.280485z m231.41865 502.894621c0-8.903787-4.452405-17.804505-8.904811-22.252817L485.296825 237.136118c-4.447289-4.447289-13.352099-8.899694-22.251794-8.899694-8.899694 0-17.800411 4.452405-22.252816 8.899694L298.383808 379.550665c-13.352099 4.447289-17.800411 13.352099-17.800412 22.251793 0 17.800411 13.349029 35.600823 35.600823 35.600823 8.899694-4.448312 17.804505-8.900717 22.251793-13.348006l120.161731-120.161731 226.967268 226.966245c4.451382 4.452405 13.352099 8.904811 22.251793 8.904811 17.799388 4.446265 35.603893-13.352099 35.603893-31.152511z m0 0"  horiz-adv-x="1024" />

    
    <glyph glyph-name="chengbanrenbiangeng" unicode="&#42500;" d="M513.344113 450.385966c103.759155 0 188.175777 84.416622 188.175777 188.183964 0 103.760179-84.416622 188.1768-188.175777 188.1768-103.767342 0-188.183963-84.416622-188.183964-188.1768 0-103.767342 84.416622-188.183963 188.183964-188.183964z m0 278.465153c49.7818 0 90.280166-40.497343 90.280166-90.280166 0-49.783847-40.498366-90.287329-90.280166-90.287329-49.783847 0-90.287329 40.503483-90.287329 90.287329 0 49.782823 40.503483 90.280166 90.287329 90.280166zM557.779138 259.52708099999995c0 12.094456-15.882736 16.568351-22.196535 6.251377l-37.261649-60.900022c-5.825682-7.2798-9.461489-16.374946-9.461489-26.36753 0-23.39278 19.139919-42.531676 42.531676-42.531676h340.257497c23.39278 0 42.531676 19.139919 42.531676 42.531676s-19.139919 42.531676-42.531676 42.531675H557.779138v38.4845zM871.648638 75.87841000000003H531.391141c-23.39278 0-42.531676-19.139919-42.531676-42.531675 0-23.39278 19.139919-42.531676 42.531676-42.531676h313.8695v-38.483476c0-12.094456 15.882736-16.568351 22.196535-6.251377l37.261649 60.900021c5.825682 7.2798 9.461489 16.374946 9.461489 26.367531 0.001023 23.391756-19.138896 42.530652-42.531676 42.530652zM645.972782 284.769998h145.028071c-72.16867 71.449285-169.991626 115.499547-277.655717 115.499547-221.3749 0-401.479861-185.878454-401.479861-414.347936h85.064375c0 181.567265 141.942803 329.283562 316.415486 329.283562 47.345308 0 92.258217-10.95347 132.627646-30.435173z"  horiz-adv-x="1024" />

    
    <glyph glyph-name="anjianzhinengtixing" unicode="&#42501;" d="M887.732965 113.040798c-8.159844 53.506635-102.519931 72.350818-104.118336 109.020996-1.617847 36.669154 7.950066 227.882104 7.950066 227.882104 5.392824 150.067854-97.728812 232.185106-203.611327 269.697465 0.11154 0.401136 0 1.071402-0.111541 1.771343 0.010233 0.763386 0.11154 1.49812 0.111541 2.279926 0 42.436508-34.42709 76.855412-76.867692 76.855412-42.447764 0-76.877925-34.418904-76.877925-76.866668 0-0.782829 0.093121-1.520633 0.116657-2.280949-0.116657-0.696872-0.232291-1.358951-0.116657-1.774413-105.889679-37.516452-209.019501-119.614262-203.622584-269.697466 0 0 9.583263-191.1976 7.969509-227.882103-1.62501-36.669154-95.973842-55.514361-104.126522-109.01281-5.317099-20.634969 18.507516-41.298592 41.321104-41.298591h241.862513c-0.554632-4.201695-0.958838-8.463766-0.958838-12.814864 0-52.173267 42.271756-94.490048 94.433766-94.557586 52.150754 0.067538 94.41944 42.384319 94.41944 94.557586 0 4.352121-0.401136 8.613168-0.962931 12.814864h241.868653c22.825868 0 46.62797 20.678972 41.321104 41.305754z m0 0"  horiz-adv-x="1024" />

    
    <glyph glyph-name="anjian" unicode="&#42502;" d="M815.091528 833.231421H204.814224c-65.432245 0-118.664633-53.231365-118.664633-118.664633v-661.133576c0-65.432245 53.232388-118.664633 118.664633-118.664633h610.276281c65.432245 0 118.664633 53.232388 118.664633 118.664633V714.566788c0.001023 65.433268-53.231365 118.664633-118.66361 118.664633z m33.904181-779.798209c0-18.697851-15.2094-33.904181-33.904181-33.904181H204.814224c-18.694781 0-33.904181 15.20633-33.904181 33.904181V714.566788c0 18.698874 15.2094 33.904181 33.904181 33.904181h610.276281c18.694781 0 33.904181-15.205307 33.904181-33.904181v-661.133576zM715.580117 245.25502900000004H304.320519c-22.187325 0-40.173978-18.98847-40.173978-42.380226 0-23.408129 17.986653-42.380226 40.173978-42.380226h411.259598c22.191418 0 40.178071 18.972097 40.178071 42.380226 0 23.391756-17.986653 42.380226-40.178071 42.380226zM715.580117 423.86494H304.320519c-22.187325 0-40.173978-18.98847-40.173978-42.380227 0-23.409153 17.986653-42.380226 40.173978-42.380226h411.259598c22.191418 0 40.178071 18.971074 40.178071 42.380226 0 23.390733-17.986653 42.380226-40.178071 42.380227zM715.580117 607.50747H304.320519c-22.187325 0-40.173978-18.972097-40.173978-42.380226s17.986653-42.380226 40.173978-42.380226h411.259598c22.191418 0 40.178071 18.972097 40.178071 42.380226s-17.986653 42.380226-40.178071 42.380226z"  horiz-adv-x="1024" />

    
    <glyph glyph-name="baobeishenpi" unicode="&#42503;" d="M787.869536 293.63285299999995c23.514553 0 45.63741-4.473895 66.5323-13.516852 20.950148-9.05626 39.220257-21.454638 54.912657-36.936237 15.59007-15.467273 28.111245-33.743522 37.208436-54.407144 9.219989-20.786419 13.803377-42.800805 13.803378-66.150606 0-23.855314-4.583388-46.087665-13.741979-66.758449-9.104355-20.72502-21.62553-38.879496-37.208437-54.523801-15.699564-15.480576-33.969673-27.605731-54.91982-36.48496-20.895913-8.824993-43.073005-13.18223-66.532299-13.18223-24.14184 0-46.592155 4.357238-67.488067 13.18223-20.895913 8.879228-39.281655 21.004383-54.809304 36.48496-15.753799 15.582907-28.158317 33.743522-37.31793 54.523801-9.15859 20.670785-13.796214 42.957371-13.796214 66.758449 0 23.350824 4.6366 45.36521 13.796214 66.150606 9.159614 20.609387 21.564132 38.886659 37.31793 54.407144 15.528672 15.480576 33.914414 27.878954 54.809304 36.936237 20.895913 9.041934 43.291992 13.516852 67.433831 13.516852z m106.591667-156.144246c3.123131 3.51915 5.919826 8.040117 8.599866 13.18223 2.625804 5.134951 1.792832 9.881045-2.346442 13.967106l-7.426133 7.822153c-3.91517 4.133134-6.424316 6.424316-7.488554 7.0383-5.305843 3.51915-10.222829 4.077875-14.921851 1.452072-4.746094-2.51631-9.438976-6.199189-14.129812-10.891048-12.071943-11.961426-23.910573-23.527856-35.694967-34.978653a3221.318794 3221.318794 0 0 1-33.30043-32.625048c-3.634784-3.634784-7.822153-5.811356-12.180414-6.649444-4.466732-0.668219-8.101515 0.722454-10.673084 4.357238l-7.371898 7.712659a870.436532 870.436532 0 0 0-10.617825 11.675924l-10.556426 12.125155c-3.464915 3.846608-5.810333 6.642281-7.433297 8.156774-3.123131 2.618641-6.642281 4.241604-10.55745 5.025456-3.852748 0.839111-8.040117-0.558725-12.17939-4.248767l-3.846608-3.51915c-2.182712-1.677199-4.248767-3.744277-6.314823-6.14393-2.072195-2.292206-4.133134-4.358261-6.314822-6.199189l-3.859911-3.464915c-7.814989-8.326643-6.751774-17.881253 3.245927-28.833699 3.068895-3.628644 7.202029-8.156774 12.514012-13.626345a1218.880479 1218.880479 0 0 0 16.429181-17.485233c5.803169-6.152117 11.559267-12.288884 17.315364-18.215874 5.748934-5.981225 10.673084-10.782577 14.968923-14.355963 4.077875-4.248767 9.888208-6.089695 17.213033-5.864567 7.364735 0.272199 12.847609 2.454912 16.420995 6.587022 7.371898 6.765077 15.699564 14.921851 25.137517 24.524556 9.384741 9.499351 19.272949 19.279089 29.332049 29.105898 10.222829 9.725502 20.166295 19.559475 29.836538 29.106922 9.547447 9.562796 18.432815 17.992793 26.200732 25.26236zM66.454016 59.55258300000003c0-27.26497 24.694425-49.443086 53.738925-49.443085h487.380276c2.276856 0 3.624551 2.466168 2.438539 4.408403-22.518876 36.870746-33.899064 81.237209-29.385261 128.564097 9.365298 98.201579 88.74009 177.357384 186.968276 186.445366 34.727942 3.213181 67.862597-2.139733 97.638761-14.183023 1.911536-0.772596 3.974521 0.592494 3.974521 2.653433V435.027164a2.910283 2.910283 0 0 1-2.910283 2.910282h-47.981804a2.90926 2.90926 0 0 0-2.90926 2.910283V763.741767c0 26.910906-21.815865 48.726771-48.726771 48.726771H162.361343c-23.288402 0-42.168402-18.879999-42.168402-42.168401v-329.452408a2.910283 2.910283 0 0 0-2.910283-2.910283H69.363276a2.90926 2.90926 0 0 1-2.90926-2.910282v-375.474581z m107.041922 609.003288c0 20.579711 16.682961 37.263695 37.263695 37.263695h517.447059c18.755156 0 33.95944-15.204283 33.959439-33.959439v-231.012398a2.910283 2.910283 0 0 0-2.910282-2.910283H176.405197a2.90926 2.90926 0 0 0-2.909259 2.910283V668.555871z m80.387865-123.576503h427.831018c14.718213 0 26.649963-11.930727 26.649964-26.64894v-0.001023c0-14.718213-11.93175-26.64894-26.649964-26.64894H253.883803c-14.718213 0-26.64894 11.930727-26.64894 26.64894v0.001023c0 14.71719 11.930727 26.64894 26.64894 26.64894z m-0.001024 107.09718h427.834089c14.71719 0 26.64894-11.930727 26.64894-26.647917v-0.001023c0-14.71719-11.930727-26.647917-26.64894-26.647917h-427.834089c-14.71719 0-26.647917 11.930727-26.647916 26.647917v0.001023c0 14.716166 11.930727 26.647917 26.647916 26.647917z"  horiz-adv-x="1024" />

    
    <glyph glyph-name="chaxuntongji" unicode="&#42504;" d="M225.902518 584.708208c0 17.480116-14.276145 31.623231-31.881105 31.623231h-95.665826c-17.60496 0-31.871895-14.134929-31.871895-31.623231v-618.668415h159.418826V584.708208z m471.16599-347.859639h-52.092426a32.090882 32.090882 0 0 1-12.586666-2.574639c-11.344373-4.844332-19.277042-16.022928-19.277042-29.056779v-239.185544h159.351288V161.71128799999997l-75.395154 75.137281zM496.799298 788.221298a31.773657 31.773657 0 0 1-28.601408 17.853623h-95.686293c-17.600867 0-31.860638-14.134929-31.860638-31.623231v-112.997564c34.761712 59.039651 90.106204 104.57473 156.148339 126.767172z m3.278673-543.630395c-67.49523 21.778003-124.08918 67.859527-159.427012 127.877459v-406.428569h159.427012V244.59090300000003z m439.340144-0.115633L777.895371 405.491477c19.393699 32.69975 30.688953 70.749344 30.688953 111.456464 0 121.369232-98.705046 219.791845-220.442668 219.791845-121.728412 0-220.437551-98.414427-220.437551-219.791845 0-121.376395 98.709139-219.767286 220.437551-219.767285 40.894386 0 79.001285 11.30344 111.809505 30.589692l161.579026-161.016207a54.945403 54.945403 0 0 1 38.968523-16.089444c30.381961 0 55.090712 24.585955 55.090712 54.975079a54.639434 54.639434 0 0 1-16.171307 38.835494z m-351.280552 107.680464c-91.342358 0-165.342746 73.788563-165.342746 164.792207 0 91.045599 74.000388 164.850535 165.342746 164.850536 91.293239 0 165.364235-73.804936 165.364235-164.850536 0-91.01183-74.061786-164.792207-165.364235-164.792207z"  horiz-adv-x="1024" />

    
    <glyph glyph-name="fenanguanli" unicode="&#42505;" d="M812.323485 830.301695H541.411355v-0.006139H188.86088s-80.987522 2.349511-80.987522-86.316902v-195.238636l1.323135-535.083741c0-41.373293 33.567513-74.972529 74.91727-74.972529h648.798642c34.073026 0 62.739926 22.75219 71.937403 53.792137-12.071943-8.449439-27.088962-12.781094-43.264363-10.929933-27.944446 3.198855-50.92074 25.548886-54.714136 53.41863-3.071965 22.564925 5.851265 43.173289 21.341051 56.388265l-88.923262 131.067104c-13.904685-8.139378-29.779234-13.19758-46.766117-14.309914v-102.066606c32.352849-3.574409 57.277518-31.705096 55.637158-65.39643-1.564635-32.141024-28.576849-58.58735-60.742432-59.497069-35.458583-1.003863-64.50513 27.428699-64.50513 62.635549 0 32.284287 24.37106 58.795081 55.713906 62.25795V208.11003700000003c-16.434298 1.066285-31.855522 5.844102-45.395909 13.522992l-85.282339-129.642662c15.800871-13.09218 24.948205-33.810037 22.059412-56.492642-3.584642-28.15013-26.729781-50.849108-54.934147-53.975309-41.950438-4.649903-76.744895 32.112372-68.684312 74.560136 4.688789 24.688285 24.651446 44.508703 49.338708 49.203632 14.748912 2.804882 28.661783 0.38067 40.533159-5.662977l85.336574 129.721457c-29.341259 22.208814-46.916543 59.286268-41.108257 100.095719 6.729262 47.276746 45.74281 84.883249 93.216032 90.045829 63.968917 6.955412 118.059859-43.002396 118.059859-105.542778 0-34.019815-16.07614-64.225767-41.006949-83.687004l88.97852-131.059941c8.691963 4.622274 18.651802 7.252171 29.218462 7.252171 14.71412 0 28.261671-5.134951 38.97671-13.625322l0.00614 381.824195h0.002047V734.686011c-0.001023 52.588729-43.027979 95.615685-95.616708 95.615684zM243.461429 705.654814h241.409189c13.415544 0 25.814945-9.097192 28.114314-22.313192 3.013637-17.313318-10.190083-32.234145-26.865881-32.234145H244.061087c-11.834536 0-22.945595 7.198959-26.513864 18.482957-5.938246 18.778692 7.987928 36.06438 25.914206 36.06438z m242.656599-293.110711h-242.656599c-17.895579 0-31.804357 17.23964-25.944905 36.039821 3.523243 11.304464 14.631232 18.537192 26.471908 18.537192h240.810554c13.392008 0 25.791409-9.035794 28.160364-22.215978 3.110851-17.310248-10.120498-32.361035-26.841322-32.361035z m0 115.89352h-241.336534c-13.416568 0-25.830295 9.06854-28.176736 22.277376-3.077082 17.319457 10.153244 32.299637 26.856671 32.299637h241.338581c13.392008 0 25.791409-9.03477 28.160363-22.215977 3.109828-17.311271-10.121522-32.361035-26.842345-32.361036z"  horiz-adv-x="1024" />

    
    <glyph glyph-name="jiekouguanli" unicode="&#42506;" d="M933.357072 84.94797300000005H637.945969c-2.482541 55.57883-41.130769 110.160959-93.553723 124.017548v74.581626h318.337255c22.269189 0 40.49018 18.22099 40.49018 40.49018v79.652108h-782.440385v-79.652108c0-22.269189 18.22099-40.49018 40.490179-40.49018h318.338279v-74.597999c-51.940976-13.879102-90.572832-68.437695-93.546559-124.001175H90.649068c-13.997805 0-25.40153-11.403724-25.40153-25.385157 0-13.997805 11.403724-25.40153 25.40153-25.401529h303.707047c18.134009-47.164183 64.262606-80.853469 117.643373-80.85347s99.509365 33.689287 117.650537 80.85347h303.707047c13.989619 0 25.393343 11.403724 25.393343 25.401529 0 13.981433-11.403724 25.385157-25.393343 25.385157zM903.218658 772.156414c0 22.269189-18.22099 40.49018-40.49018 40.49018H161.269475c-22.269189 0-40.49018-18.22099-40.490179-40.49018v-327.9768h782.439362V772.156414z"  horiz-adv-x="1024" />

    
    <glyph glyph-name="daochugonggao" unicode="&#42507;" d="M913.14524 195.69938000000002L692.785459 373.25119199999995c-15.637142 12.620435-38.792515 1.3743-38.792514-18.762319v-134.756124H439.895799c-16.844643 0-30.56411-13.773701-30.56411-30.785143v-61.618383c0-17.006326 13.661138-30.725792 30.56411-30.725792h214.097146v-134.756123c0-20.195971 23.155373-31.387871 38.792514-18.767436l220.359781 177.502693c23.919782 19.259646 23.919782 55.912427 0 75.116815zM204.516954 380.762259h0.001023V717.827041h279.012621v-180.797739c0-24.24724 19.478633-43.893696 43.565215-43.893696h179.590238v-75.949786h111.601774V531.106406c0 11.628852-4.613064 22.825868-12.787234 31.055296L552.062438 817.357895a43.24799 43.24799 0 0 1-30.839379 12.894682l-362.902241-0.054235c-36.108383 0-65.405639-29.465079-65.405638-65.842591v-758.654656c0-36.431747 29.303396-65.842591 65.406662-65.842591h213.605959V52.231851000000006H204.516954V380.762259z"  horiz-adv-x="1024" />

    
    <glyph glyph-name="daorushouan" unicode="&#42508;" d="M621.663632 217.383238L402.988214 393.579169c-15.517415 12.524245-38.495756 1.364067-38.495756-18.619056v-133.727701H152.029532c-16.715707 0-30.329772-13.668301-30.329772-30.549783v-61.147662c0-16.876366 13.555737-30.491455 30.329772-30.491455h212.461903V-14.68418799999995c0-20.041452 22.978341-31.147394 38.495756-18.624173l218.676441 176.147836c23.737634 19.113313 23.737634 55.485709 0 74.543763z m267.947612 346.628602L638.106116 817.258635a42.917462 42.917462 0 0 1-30.602995 12.796444l-360.130104-0.053212c-35.83209 0-64.906266-29.239951-64.906265-65.340148v-380.663766h110.750383V718.487074h276.882098v-179.416276c0-24.063045 19.330254-43.559075 43.23264-43.559075h178.217984v-446.053032H625.418142v-111.514793h211.97481c35.826973 0 64.907289 29.185716 64.907288 65.340147V533.193951c0 11.540847-4.577249 22.651906-12.688996 30.817889z m0 0"  horiz-adv-x="1024" />

    
    <glyph glyph-name="dayinwenshu" unicode="&#42509;" d="M897.402697 532.929938H126.661771c-34.154891 0-62.079894-27.960819-62.079894-62.086034v-296.294217c0-34.19787 27.925003-62.086034 62.079894-62.086033h54.298674V343.703225h662.107763V112.46160699999996h54.334489c34.125215 0 62.015426 27.888164 62.015426 62.086034V470.842881c0 34.126238-27.89021 62.087057-62.015426 62.087057z m0 0M259.857353 35.74229500000001c0-26.085098 21.333888-47.454802 47.483454-47.454802h409.382854c26.084075 0 47.452755 21.375843 47.452755 47.454802V266.118196H259.857353v-230.375901z m581.907163 696.486758c0 26.078958-21.290909 47.484478-47.442522 47.484477H229.754754c-26.15673 0-47.488571-21.404496-47.48857-47.484477v-121.742739h659.498332v121.742739z m0 0"  horiz-adv-x="1024" />

    
    <glyph glyph-name="jiean" unicode="&#42510;" d="M574.336 522.24c-16.128 0-29.312-13.184-29.312-29.312 0-16.128 13.184-29.312 29.312-29.312h278.528c16.128 0 29.312 13.184 29.312 29.312 0 16.128-13.184 29.312-29.312 29.312H574.336zM979.968 639.488c0 16.128-13.184 29.312-29.312 29.312h-376.32c-16.128 0-29.312-13.184-29.312-29.312 0-16.128 13.184-29.312 29.312-29.312h376.32c16.128 0 29.312 13.184 29.312 29.312zM1245.568 631.9359999999999c-153.216-102.912-294.016-302.464-335.872-365.056-6.4-9.472-20.096-10.24-27.392-1.408l-111.872 134.528c-6.016 7.168-16.64 8.192-23.936 2.432l-76.16-61.184c-8.96-7.168-8.448-20.864 0.896-27.392 62.208-43.52 140.672-112.384 208-208.384 6.784-9.728 21.12-9.728 27.904-0.128C984.32 214.01599999999996 1159.68 395.136 1252.48 423.552c7.808 2.432 12.8 10.112 11.776 18.304-5.632 48.256-5.12 118.144 7.296 172.032 3.712 14.976-13.056 26.752-25.984 18.048zM1055.744 220.67200000000003v-138.368c0-21.504-17.536-39.04-39.04-39.04H508.288c-21.504 0-39.04 17.536-39.04 39.04v645.12c0 21.504 17.536 39.04 39.04 39.04h508.288c21.504 0 39.04-17.536 39.04-39.04V515.8399999999999c24.704 26.624 50.944 52.864 78.208 77.44V727.424c0 64.64-52.608 117.248-117.248 117.248H508.288c-64.64 0-117.248-52.608-117.248-117.248v-645.12c0-64.64 52.608-117.248 117.248-117.248h508.288c64.64 0 117.248 52.608 117.248 117.248V296.576c-11.136-9.984-22.912-20.864-35.328-32.768-14.208-13.824-28.672-28.288-42.752-43.136z"  horiz-adv-x="1638" />

    
    <glyph glyph-name="piliangchengbanrenbiangeng" unicode="&#42511;" d="M714.846406 368.67087300000003c60.889789 0 110.428042 49.538253 110.428042 110.433158 0 60.889789-49.538253 110.428042-110.428042 110.428042-60.893882 0-110.433158-49.538253-110.433158-110.428042 0.001023-60.893882 49.539276-110.433158 110.433158-110.433158z m0 163.41279c29.213345 0 52.979632-23.765263 52.979632-52.979632 0-29.214369-23.765263-52.983725-52.979632-52.983725-29.215392 0-52.983725 23.769356-52.983725 52.983725s23.769356 52.979632 52.983725 52.979632zM740.922295 256.668986c0 7.097652-9.320273 9.722432-13.025665 3.668553l-21.866007-35.737946c-3.418866-4.272303-5.552459-9.608845-5.552459-15.473413 0-13.727653 11.231809-24.959461 24.959461-24.959461h199.674669c13.727653 0 24.959461 11.231809 24.959461 24.959461s-11.231809 24.959461-24.959461 24.959462H740.922295v22.583344zM925.111271 148.89744800000005H725.437625c-13.727653 0-24.959461-11.231809-24.959461-24.959462s11.231809-24.959461 24.959461-24.959461h184.188976v-22.583345c0-7.097652 9.320273-9.722432 13.025665-3.668553l21.866007 35.737946c3.418866 4.272303 5.552459 9.608845 5.552459 15.473413 0 13.727653-11.231809 24.959461-24.959461 24.959462zM792.677029 271.48236699999995h85.107353c-42.35055 41.928948-99.757005 67.778686-162.937976 67.778686-129.909745 0-235.601926-109.080348-235.601926-243.152902h49.918923c0 106.549711 83.297125 193.235003 185.684026 193.235002 27.783787-0.001023 54.140061-6.42841 77.8296-17.860786zM435.929975 425.959647c94.01114 0 170.497139 76.485998 170.497139 170.504302 0 94.01114-76.485998 170.497139-170.497139 170.497139-94.018304 0-170.504302-76.485998-170.504302-170.497139 0.001023-94.018304 76.487022-170.504302 170.504302-170.504302z m0 252.302283c45.106314 0 81.799004-36.69269 81.799005-81.799004 0-45.106314-36.69269-81.804121-81.799005-81.804121-45.106314 0-81.805144 36.697807-81.805144 81.804121 0.001023 45.106314 36.69883 81.799004 81.805144 81.799004zM570.920436 353.54640800000004c-41.776476 17.316387-87.283925 27.006074-134.990461 27.006073-200.576201 0-363.760794-168.414711-363.760794-375.419321h77.072353c0 164.508751 128.607076 298.346969 286.688441 298.346968 27.90556 0 54.860469-4.240581 80.373539-12.036127 14.670118 23.470551 33.178657 44.410466 54.616922 62.102407z"  horiz-adv-x="1024" />

    
    <glyph glyph-name="piliangfenan" unicode="&#42512;" d="M911.481855 249.24592299999995h-23.484877c-10.68434 54.876842-58.874899 101.913111-120.682593 101.913111h-91.64935v15.679098h49.192376c23.445992 0 44.88221 30.712489 44.88221 54.160527V548.3634420000001c0 23.447015-21.436218 45.820582-44.88221 45.820581H597.491605c-23.448038 0-39.418778-22.373567-39.418778-45.820581V420.998659c0-23.448038 15.971763-54.160527 39.418778-54.160527h46.815235v-15.679098h-89.267093c-61.807694 0-116.848265-47.037293-129.177058-101.913111h-34.45472c-23.449062 0-37.162388-24.15105-37.162388-47.598064V74.28205300000002c0-23.447015 13.713326-52.382021 37.162388-52.382021h127.364783c23.449062 0 39.300075 28.935006 39.300075 52.382021V201.646835c0 23.447015-15.851013 47.598065-39.300075 47.598065h-49.054229c11.605316 39.197744 47.004547 54.876842 85.322247 54.876841h212.274638c38.316677 0 67.795059-15.679098 77.247338-54.876841h-60.44465c-26.626427-6.695492-30.05655-24.15105-30.05655-47.598065V74.28205300000002c0.980327-52.382021 30.05655-52.382021 30.05655-52.382021H911.482879c14.06739 0 46.405913 6.043646 46.405912 52.382021V201.646835c-0.001023 0-3.921309 50.212612-46.406936 47.599088zM332.93216 374.677681h162.983002V566.745091c0 51.740408 42.334177 94.074585 94.074585 94.074585h30.800493v46.723138c0 31.328519-29.628808 59.110259-60.956303 59.110259H389.655046c-31.330566 0-58.928111-27.782763-58.928111-59.110259v-170.178891c0-31.328519 27.597545-60.772109 58.928111-60.772108h58.665121v-39.197744h-115.388007c-82.584903 0-156.125827-62.71639-172.597987-141.110855h-46.038545c-31.329543 0-50.111305-20.673855-50.111305-52.004421v-170.178891c0-31.328519 18.781762-67.87897 50.111305-67.87897h161.555489V217.88772800000004c0 29.534663 13.823843 55.964616 35.286668 73.244165-8.326643 3.319605-17.452487 5.1503-26.663267 5.1503H218.92971c15.506159 54.876842 62.805418 78.395488 114.00245 78.395488z"  horiz-adv-x="1024" />

    
    <glyph glyph-name="lianguanli" unicode="&#42513;" d="M248.632195 364.609371c-2.993171-3.764744-14.965853-17.142425-17.377785-20.475334-11.861142-16.384156-14.985296-42.081421-10.403955-57.772798 6.489808-22.207791 28.677133-24.697495 45.113477-26.343995 38.107923-3.816932 76.856435-1.215688 115.330702-1.22899 2.509147 0 5.012154 0.01228 7.515161 0.012279a296.143791 296.143791 0 0 0-5.888104 58.83192c0 125.34273 78.347392 232.340649 188.703803 274.873348-8.712429 42.407855-31.880081 82.006735-68.183915 111.121843-76.875878 61.667501-188.683337 55.995315-257.860883-13.077853-75.196633-75.05951-63.040778-198.905142 3.894704-282.754852 15.435551-19.337417 8.416693-31.519878-0.843205-43.185568zM398.005224 224.61392c-91.600231-0.019443-183.187159-0.149403-274.78739-0.398066-39.480176-0.11154-56.159044-17.665335-56.675813-56.486503-0.2415-18.142196-0.038886-36.284391-0.038886-56.43943h400.849504c-31.081902 31.644721-55.028291 70.275553-69.347415 113.323999zM99.055528 81.99164199999996v-58.909692h565.536311v0.326435c-61.34823 2.64627-117.826546 24.010857-163.855882 58.583257H99.055528zM683.824879 383.19568100000004c-35.33681 0-64.125483-29.016871-64.125483-64.720023 0-35.697013 28.749788-64.726164 64.125483-64.726164 35.376719 0 64.119343 29.030174 64.119343 64.726164 0 35.703153-28.77537 64.720024-64.119343 64.720023zM690.43953 582.722994c-146.406464 0-265.095657-118.690216-265.095657-265.090541 0-146.406464 118.689193-265.095657 265.095657-265.095657 146.400325 0 265.089517 118.690216 265.089517 265.095657 0 146.400325-118.690216 265.090541-265.089517 265.090541z m177.246867-295.120485c-2.124384-11.260461-8.960069-18.573008-17.730827-18.573007h-1.522679c-24.441669 0-44.303019-20.071128-44.303019-44.748157 0-7.960299 3.823072-17.011442 3.855818-17.090237 4.378727-9.920954 0.99977-22.109554-8.398274-28.702715l-46.231951-25.730011c-2.888793-1.24127-6.025227-1.895163-9.326413-1.895163-7.117095 0-14.037714 2.987031-18.534122 8.012487-5.025457 5.542226-22.429849 21.422915-36.023448 21.422916-12.547781 0-29.514197-14.156418-35.781948-21.030989-4.463662-4.901637-11.378142-7.829316-18.410301-7.829316-3.378957 0-6.5553 0.633427-10.050914 2.208295l-44.545542 25.207101c-8.849552 6.228865-12.181437 18.450211-7.79657 28.383444 0.032746 0.077771 3.855818 9.045003 3.855818 17.044188 0 24.645306-19.860327 44.748157-44.303019 44.748157h-1.855254c-8.43102 0-15.272845 7.27366-17.397228 18.573007-0.163729 0.843204-3.784186 20.463054-3.784187 35.774785 0 15.358803 3.621481 34.971489 3.784187 35.781948 2.124384 11.30037 8.921183 18.574031 17.678637 18.574031h1.535983c24.441669 0 44.303019 20.063965 44.303019 44.748157 0 8.077979-3.816932 17.011442-3.862981 17.076933-4.371564 9.940396-1.006933 22.161742 8.444322 28.749788l47.081295 26.01756c2.888793 1.248434 6.03239 1.850138 9.326413 1.850138 7.03216 0 13.906731-2.856048 18.409279-7.67889 4.940522-5.229095 22.024619-20.187785 35.219129-20.187785 13.071713 0 30.069853 14.639418 34.977629 19.788696 4.496407 4.692882 11.333116 7.516184 18.286482 7.516184 3.385097 0 6.601348-0.64673 10.090822-2.169409l45.434796-25.573446c8.842389-6.235005 12.221346-18.410302 7.842618-28.377304-0.046049-0.084934-3.862981-9.051143-3.862981-17.057491 0-24.638143 19.901259-44.748157 44.297902-44.748157h1.856278c8.483208 0.045025 15.318894-7.228635 17.443277-18.527982 0.163729-0.842181 3.784186-20.384259 3.784187-35.781947-0.002047-15.719007-3.740184-35.573193-3.786233-35.775809z"  horiz-adv-x="1024" />

    
    <glyph glyph-name="pilianggaizhang" unicode="&#42514;" d="M342.685803 358.13286600000004c-3.719718-4.683672-18.60166-21.318538-21.600971-25.458835-14.756075-20.370956-18.632359-52.315506-12.932543-71.838142 8.060583-27.608801 35.651988-30.698163 56.089459-32.744775 47.372937-4.744048 95.545076-1.50733 143.395898-1.519609 46.65253-0.013303 93.319385 0.629333 139.953495-0.25992 27.550473-0.528026 50.755987 7.080256 62.257949 33.053813 12.258185 27.688619 5.945409 53.867862-14.863522 76.103282-7.349385 7.853875-14.96176 15.471366-22.576182 23.075555-17.496489 17.483186-17.147542 35.029818-1.662872 53.902654 14.386662 17.533328 29.112038 35.052331 41.234123 54.136991 65.329914 102.877065 42.544979 236.817614-52.490491 313.050856-95.575776 76.667124-234.586806 69.621661-320.604902-16.254196-93.485161-93.332688-78.365812-247.314689 4.850471-351.545588 19.200294-24.048719 10.471492-39.199791-1.049912-53.702086zM904.097166 109.78770799999995c-0.195451 50.17475-21.62246 73.944106-71.006194 74.051553-214.202547 0.460488-428.409187 0.321318-642.61071-0.264013-49.084928-0.134053-69.827345-21.948895-70.471004-70.220295-0.299829-22.557762-0.049119-45.12371-0.049119-70.184479h784.151353c0 23.86657 0.067538 45.239344-0.014326 66.617234zM164.685783 7.943159000000037h694.628434v-71.539337H164.685783z"  horiz-adv-x="1024" />

    
    <glyph glyph-name="piliangjieshou" unicode="&#42515;" d="M852.093768 330.104509V45.76250900000002c0-7.17133-5.834892-13.006222-13.006221-13.006222H184.901197c-7.179516 0-13.014408 5.834892-13.014408 13.006222V722.253864c0 7.17133 5.834892 13.006222 13.014408 13.006222h233.542011V831.8847499999999H167.55411c-54.305837 0-98.488105-44.181245-98.488105-98.492198V34.60847100000001c0-54.30993 44.182268-98.492198 98.488105-98.492198h688.880523c54.314023 0 98.500385 44.182268 98.500385 98.492198V330.104509H852.093768zM816.058041 300.21373500000004l-140.131551 129.859603c2.87549 1.972934 5.662977 4.176113 8.244778 6.786567L915.382187 670.4960599999999c17.901719 18.08796 20.575618 44.452421 5.987364 58.895365l-64.282048 63.613829c-14.592346 14.44806-40.935318 11.482519-58.832944-6.614651L567.04364 552.7636580000001c-3.946892-3.990894-7.024997-8.420787-9.472745-12.999058l-130.563638 120.996748 2.482541-363.021967 386.568243 2.474354z"  horiz-adv-x="1024" />

    
    <glyph glyph-name="piliangjieshouhuizhengjiguidang" unicode="&#42516;" d="M896.96728 514.224924H736.729809v-3.297093c0-24.832572-20.317745-45.150316-45.150316-45.150316H330.374918c-24.832572 0-45.150316 20.317745-45.150316 45.150316v3.297093H125.050576c-34.20708 0-62.174038-28.003797-62.174038-62.180178v-296.745495c0-34.250058 27.967982-62.180178 62.174038-62.180178h54.381561V324.70963900000004h663.116743v-231.593636h54.4184c34.17638 0 62.108546 27.930119 62.108547 62.180178V452.042699c0 34.178427-27.932166 62.182224-62.108547 62.182225zM258.449795 16.280034c0-26.125007 21.366633-47.527456 47.556109-47.527456h410.007071c26.122961 0 47.524386 21.408589 47.524387 47.527456V247.00590599999998H258.449795v-230.725872zM491.06469 538.724921c10.205433-12.674671 29.625738-12.674671 39.802518 0l94.078679 116.761283c6.687306 8.28571 0.728594 20.555152-9.94142 20.555152h-41.835827c-16.328897 0-29.567409 13.238512-29.56741 29.567409V789.484058c0 8.925277-7.297197 16.194844-16.3115 16.194844h-32.649608c-9.011234 0-16.280802-7.237845-16.280802-16.194844v-83.875293c0-16.32992-13.237489-29.567409-29.567409-29.567409h-41.834804c-10.700713 0-16.631796-12.269441-9.945513-20.555152l94.053096-116.761283z"  horiz-adv-x="1024" />

    
    <glyph glyph-name="piliangshenpi" unicode="&#42517;" d="M1117.824 740.2239999999999l0.256-0.256v-670.208l-0.256-0.256H559.36l-0.256 0.256V739.968l0.256 0.256h-112v-670.592c0-61.44 50.304-111.744 111.744-111.744h558.848c61.44 0 111.744 50.304 111.744 111.744V740.2239999999999h-111.872zM1062.144 740.2239999999999h-111.744V796.16c0 30.848-25.088 55.936-55.936 55.936h-111.744c-30.848 0-55.936-25.088-55.936-55.936v-55.936h-111.744V628.48h447.104v111.744z m-167.68 0h-111.744V796.16h111.744v-55.936zM1026.944 543.104C930.432 470.016 843.776 352 808.192 300.288c-8.704-12.672-27.264-13.568-37.12-1.664l-67.072 80.64c-8.192 9.728-22.656 11.264-32.512 3.2l-37.248-29.952c-11.904-9.6-11.52-27.904 0.768-36.864 41.472-30.464 90.752-75.136 134.656-134.912 9.216-12.544 28.032-12.544 37.376 0 58.624 78.464 173.824 195.968 240.512 221.696 9.6 3.712 15.616 13.44 14.72 23.68-2.56 27.776-2.56 63.232 1.792 95.232 2.944 20.608-20.48 34.432-37.12 21.76z"  horiz-adv-x="1638" />

    
    <glyph glyph-name="pilianglian" unicode="&#42518;" d="M657.751548 575.8525159999999c0 23.478737-19.635199 43.10575-43.10268 43.10575H271.180236c-23.52274 0-43.155892-19.617803-43.155893-43.10575 0-23.475667 19.633153-43.10268 43.155893-43.10268h343.468632c23.467481 0 43.10268 19.636223 43.10268 43.10268zM271.180236 434.593282c-23.52274 0-43.155892-19.617803-43.155893-43.104727 0-23.476691 19.633153-43.103704 43.155893-43.103704h211.199143c23.467481 0 43.10268 19.636223 43.10268 43.103704 0 23.477714-19.635199 43.104727-43.10268 43.104727H271.180236zM401.409253 63.39100499999995c-0.265036 0-0.528026-0.008186-0.877997-0.025583h-241.592361c-4.497431 0-8.157797 3.659343-8.157797 8.156774V695.9426149999999c0 4.500501 3.659343 8.162914 8.157797 8.162913H721.138204c4.500501 0 8.16189-3.66139 8.161891-8.181333l0.355087-170.858366 0.071631-8.953929h0.947582c4.212952-19.594267 21.696138-34.348296 42.494836-34.348296 23.961738 0 43.455721 19.498076 43.455721 43.382043a38.214347 38.214347 0 0 1-0.122796 3.253091l0.240476 167.5449c0 52.720735-42.890856 95.613638-95.609544 95.613638H158.937872c-52.720735 0-95.613638-42.891879-95.613638-95.613638v-623.899556c0-52.713572 42.891879-95.598288 95.613638-95.598288h0.001023l242.496963 0.029676c23.947412 0.011256 43.430138 19.504216 43.430139 43.452651 0.001023 23.963785-19.493983 43.462884-43.456744 43.462884zM847.542102 495.148449h-0.005116l-52.848649-47.776119 113.067149-102.539375 52.919257 48.021714zM493.570255 174.547641l-32.021297-131.305535 145.072073 28.875654 12.367679 11.132548-113.145943 102.416578zM525.482059 203.55120799999997l113.097848-102.483092 256.825296 232.706992-113.010866 102.417601z"  horiz-adv-x="1024" />

    
    <glyph glyph-name="kaitingpaiqi" unicode="&#42519;" d="M859.202165 764.006803l-0.26606 0.01228h-69.807902a2.330068 2.330068 0 0 1-2.330068-2.330068v-60.909232c0-13.547551 0-27.100218-9.032724-40.651862-13.518898-22.531156-45.016263-36.06745-72.076572-31.652907l-0.400113 0.091074c-31.510668 9.071609-54.006008 31.629371-54.006008 63.181995v69.942978a2.331092 2.331092 0 0 1-2.330068 2.330069H373.557416a2.330068 2.330068 0 0 1-2.330068-2.330069v-60.909231c0-9.032724 0-18.066471-4.51892-27.100218-9.033747-36.139082-36.133965-54.204529-76.790944-45.171806-31.552623 4.508687-54.110385 31.504528-58.691727 63.037709l-0.029676 0.400113v72.072478h-4.517897c-31.573089 0-58.641585 0-85.70701-4.495384l-0.232291-0.045025c-31.673373-7.081279-57.794287-30.642904-72.058153-59.935044V0.33794699999998556c9.201569-27.406187 24.602328-46.554292 46.174646-58.868759h775.8462c0.415462 0.420579 0.884137 0.784876 1.440815 1.000793 29.782304 11.582803 50.132794 32.599466 61.12822 62.968124V685.43633c-9.920954 43.657312-45.466518 74.105788-94.068446 78.570473z m36.007075-724.902947c0-26.234501-21.267373-47.501874-47.501874-47.501874H174.803723c-26.232454 0-47.497781 21.265326-47.49778 47.496757V520.096654c4.086062 0 749.871619-4.514827 749.871619-4.514826 9.958816 0 18.031679-8.072863 18.031678-18.031679v-458.446293zM709.572286 660.274254c0.284479-0.097214 0.586354-0.178055 0.88209-0.233314 22.435988-4.252861 44.720527 9.298783 44.720527 36.224016V786.604474c0 22.291702-4.397147 35.781948-26.224268 44.815695a4.77884 4.77884 0 0 1-1.798972 0.357134h-12.625552c-4.51892 0-4.51892-4.51892-9.03784-4.51892-9.033747-4.514827-18.066471-13.548574-18.066471-27.101242V687.232233c0-13.406335 8.839319-22.391986 22.150486-26.957979zM292.124755 656.836969c22.1423-4.928243 42.963511 12.739139 42.963511 35.42379V800.157141c0 13.552667-4.513804 22.586414-18.066471 27.101242-4.51892 0-4.51892 4.51892-9.033747 4.51892h-12.45159c-0.723477 0-1.413186-0.154519-2.055822-0.487094-8.895601-4.612041-21.473057-13.470803-25.980721-30.494524-0.109494-0.414439-0.163729-0.856507-0.163729-1.285273v-116.7971c0-14.228049 11.20418-22.852474 24.788569-25.876343zM800.350802 447.825654H226.643392c-14.947434 0-27.064402-12.117992-27.064403-27.065425v-325.267085c0-22.586414 9.032724-27.104311 27.104312-27.104312h573.702294c14.947434 0 27.064402 12.116969 27.064402 27.064403v325.268108c0.001023 22.585391-9.032724 27.104311-27.099195 27.104311zM547.390533 411.726481a4.479011 4.479011 0 0 0 4.479011 4.479012h90.419336a4.477988 4.477988 0 0 0 4.479011-4.479012v-58.799174a4.477988 4.477988 0 0 0-4.479011-4.477988h-58.758242c-4.189416 0-8.380878 0-8.969279 3.599992-0.095167 0.585331-0.197498 1.181919-0.474814 1.705851-4.535293 8.581446-13.033851 17.043165-21.61632 21.512966a4.128017 4.128017 0 0 0-1.010003 0.734734l-2.755764 2.753717a4.481058 4.481058 0 0 0-1.313925 3.168156v29.801746z m-318.974775-2.818185l1.470491 1.468445a4.481058 4.481058 0 0 0 3.16611 1.310855h88.529289a8.993838 8.993838 0 0 0 8.993838-8.993838v-4.554736c0-13.210883 0-26.421766-12.552897-31.264051-0.636496-0.245593-1.237177-0.585331-1.695619-1.089821-4.287653-4.700045-8.574283-13.050224-12.856819-17.332761l-3.202948-3.206018a4.480035 4.480035 0 0 0-3.168156-1.312902l-69.540819-0.225127c0 21.60711-0.224104 64.11832 0.85753 65.199954z m75.054393-101.072976v-94.93314a4.479011 4.479011 0 0 0-4.479011-4.479011h-58.760289c-9.033747 0-9.033747 4.514827-9.033747 9.029654v88.48938c0 1.187035 0.471744 2.325975 1.310856 3.165086l1.892093 1.89414a4.479011 4.479011 0 0 0 3.169179 1.313925h61.421908a4.480035 4.480035 0 0 0 4.479011-4.480034z m31.618115-189.796694c0-7.432273-6.079462-13.511735-13.511735-13.511735h-84.007299a4.479011 4.479011 0 0 0-3.169179 1.313925l-1.892093 1.89414a4.479011 4.479011 0 0 0-1.310856 3.165086v61.386092c25.933649 0 47.732118 0 65.395406 3.954055a4.386914 4.386914 0 0 0 4.096295-1.174755l2.457981-2.457982c0.214894-0.213871 0.416486-0.463558 0.585332-0.716314 8.324596-12.528338 12.854772-21.144576 24.50409-25.851785 1.246387-0.503467 2.189875-1.511423 2.667759-2.76702 1.038656-2.730181 4.185322-3.352351 4.185322-7.122211v-18.111496z m176.169325-13.551644a4.479011 4.479011 0 0 0-4.479011-4.479011H375.707382a4.479011 4.479011 0 0 0-4.479011 4.479011v27.184129a4.477988 4.477988 0 0 0 4.479011 4.479011h131.072221a4.479011 4.479011 0 0 0 4.479012-4.479011v-27.184129z m0 108.414175a4.479011 4.479011 0 0 0-4.479011-4.479011H375.707382a4.479011 4.479011 0 0 0-4.479011 4.479011v94.933139a4.477988 4.477988 0 0 0 4.479011 4.479012h131.072221a4.479011 4.479011 0 0 0 4.479012-4.479012v-94.933139z m0 171.645289a4.479011 4.479011 0 0 0-4.479011-4.479012H375.707382a4.479011 4.479011 0 0 0-4.479011 4.479012v27.180035a4.477988 4.477988 0 0 0 4.479011 4.479012h131.072221a4.479011 4.479011 0 0 0 4.479012-4.479012v-27.180035z m140.026151-284.574291a4.479011 4.479011 0 0 0-4.479012-4.479011H556.426327c-9.03477 0-9.03477 4.514827-9.03477 9.032723v8.345063c0 0.456395-0.078795 0.925069-0.220011 1.35895-4.233418 13.000082-4.00522 21.824051 13.04613 30.581506 0.463558 0.23843 0.900509 0.536212 1.254574 0.917906 4.338818 4.668323 8.68173 13.180184 13.019525 17.522072 4.51892 9.033747 9.038864 9.033747 13.55676 9.033747h58.756195a4.479011 4.479011 0 0 0 4.479012-4.479012v-67.833944z m0 103.931071c-22.062482 0-44.129056 0-61.981657 4.213975a4.551666 4.551666 0 0 0-2.177595 1.22899l-2.28095 2.278903a4.482081 4.482081 0 0 0-1.312902 3.168156v84.004229a8.996908 8.996908 0 0 0 8.996908 8.996908h52.385091a4.482081 4.482081 0 0 0 3.168156-1.312901l1.892093-1.89414a4.479011 4.479011 0 0 0 1.310856-3.165086v-97.519034z m140.034336-93.002161a4.477988 4.477988 0 0 0-1.311878-3.167133l-1.895163-1.896186a4.482081 4.482081 0 0 0-3.167133-1.311879h-91.14793a4.477988 4.477988 0 0 0-3.167132 1.312902l-1.896187 1.895163a4.481058 4.481058 0 0 0-1.310855 3.16611v56.906057a4.479011 4.479011 0 0 0 4.479011 4.479012h94.938256a4.479011 4.479011 0 0 0 4.479011-4.479012v-56.905034z m0 147.208737v-40.688702c0-7.43432-6.082532-13.517875-13.517875-13.517874h-85.860506c-9.03784 0-9.03784 4.51892-9.03784 9.033747v85.860506c0 7.43432 6.082532 13.516852 13.516851 13.516852h85.860507c9.038864 0 9.038864-4.51892 9.038863-9.03784v-45.166689z m0 90.303702a4.479011 4.479011 0 0 0-4.479011-4.479012h-94.898347c-9.03784 0-9.03784 4.514827-9.03784 9.032724v63.238277c21.438265 0 99.109252-0.36225 99.109252-0.362251s9.305947-19.566638 9.305946-26.742061v-40.687677z"  horiz-adv-x="1024" />

    
    <glyph glyph-name="piliangshenqian" unicode="&#42520;" d="M749.428527 444.71685l-100.262518 90.655719h-0.004093l-46.836724-42.340317 100.204189-90.873684zM335.463308 251.24546399999997l-28.379351-116.368335 128.568191 25.590842 10.961656 9.865695-100.273775 90.765213zM691.584098 392.357342l-100.154048 90.76726-227.685629-206.17471 100.231819-90.824565zM791.939737 720.1745060000001c0.053212-0.057305 0.163729-0.110517 0.216941-0.224104v-671.964249c-0.053212-0.053212-0.106424-0.159636-0.216941-0.210801l-559.874357 0.052189c-0.057305 0.057305-0.163729 0.106424-0.221034 0.216941V719.949378c0.057305 0.056282 0.110517 0.166799 0.221034 0.224104H119.782084v-672.347988c0-61.641919 50.424436-112.057145 112.061238-112.057145H792.155654c61.641919 0 112.062262 50.415226 112.062262 112.057145V720.1745060000001H791.939737zM736.12657 720.1745060000001h-112.062262v56.029084c0 30.91101-25.113981 56.028061-56.0342 56.028061h-112.062262c-30.915104 0-56.028061-25.117051-56.028061-56.028061v-56.029084h-112.062262v-112.058169h448.249047V720.1745060000001z m-168.095439 0H455.967846v56.029084H568.031131v-56.029084z"  horiz-adv-x="1024" />

    
    <glyph glyph-name="piliangtiqinggaizhang" unicode="&#42521;" d="M791.911084 720.140737c0.053212-0.057305 0.163729-0.110517 0.216941-0.224104v-671.896711c-0.053212-0.053212-0.105401-0.158612-0.216941-0.210801l-559.818075 0.052189c-0.057305 0.057305-0.163729 0.105401-0.221034 0.215918V719.915609c0.057305 0.056282 0.110517 0.166799 0.221034 0.224104H119.821993V47.86028699999997c0-61.635779 50.41932-112.045889 112.049982-112.045889h560.255027c61.635779 0 112.049982 50.411133 112.049982 112.045889V720.140737H791.911084zM736.104057 720.140737H624.053052v56.023967c0 30.90794-25.110911 56.021921-56.028061 56.021921H455.973986c-30.912034 0-56.022944-25.113981-56.022945-56.021921v-56.023967h-112.052029v-112.046913h448.204022V720.140737z m-168.079066 0H455.973986v56.023967h112.051005v-56.023967zM618.733906 375.94658000000004c33.186843 52.260248 21.612227 120.3009-26.664289 159.0269-48.551786 38.946011-119.167077 35.366486-162.864298-8.257058-47.489594-47.411823-39.808658-125.632325 2.464121-178.581258 9.753131-12.217253 5.319146-19.913539-0.533142-27.28032-1.889023-2.379187-9.449209-10.829649-10.972913-12.932543-7.495718-10.347672-9.464559-26.576285-6.569626-36.493146 4.094248-14.025435 18.110473-15.594163 28.492938-16.633842 24.065092-2.409886 48.535413-0.765433 72.844052-0.771573 23.698748-0.007163 47.40466 0.320295 71.095221-0.132007 13.995759-0.268106 25.783223 3.596921 31.626302 16.791432 6.226818 14.065344 3.019777 27.364231-7.550977 38.659485-3.733021 3.989871-7.600095 7.858992-11.468192 11.721972-8.888438 8.881274-8.710382 17.794271-0.845251 27.382651 7.30743 8.904811 14.787798 17.804505 20.946054 27.499307zM714.438619 194.69654000000003c-0.099261 25.488511-10.984169 37.562501-36.070521 37.617759-108.813265 0.233314-217.627553 0.162706-326.439793-0.134053-24.933879-0.068562-35.470863-11.149944-35.798321-35.670408-0.152473-11.458983-0.024559-22.923082-0.024559-35.653011H714.445782c0 12.123109 0.033769 22.980387-0.007163 33.839713zM338.405313 142.96124799999996h352.863607v-36.341696H338.405313z"  horiz-adv-x="1024" />

    
    <glyph glyph-name="piliangtuihui" unicode="&#42522;" d="M754.125503 238.72735899999998c-83.721797 27.904537-192.058201 45.959751-331.589071 47.606251l-1.639336-193.7047L63.043848 407.802102l361.133967 311.887357v-172.356487c41.037648 0 157.591201-39.396265 224.892004-73.869404 67.300802-34.474163 118.188796-72.230068 154.301271-113.26567 37.756929-42.679032 68.942185-90.283236 95.205339-144.453996 26.263154-55.80805 42.684148-93.563956 49.247634-114.90603 6.568602-21.343097 11.490705-39.396265 13.131065-52.528354-57.44841 96.852862-126.397758 159.224398-206.829625 190.417841z"  horiz-adv-x="1024" />

    
    <glyph glyph-name="qingchu" unicode="&#42523;" d="M355.376335 527.55144c-20.060895 0-36.31816-15.416108-36.31816-34.43016v-352.428702c0-19.022239 16.257266-34.43016 36.31816-34.43016 20.044522 0 36.314067 15.407921 36.314067 34.43016V493.12128c0 19.014052-16.269545 34.43016-36.314067 34.43016zM508.43429 527.55144c-20.060895 0-36.319184-15.416108-36.319184-34.43016v-352.428702c0-19.022239 16.257266-34.43016 36.319184-34.43016 20.044522 0 36.31816 15.407921 36.31816 34.43016V493.12128c0 19.014052-16.273638 34.43016-36.31816 34.43016zM665.806503 527.55144c-20.056801 0-36.314067-15.416108-36.314067-34.43016v-352.428702c0-19.022239 16.257266-34.43016 36.314067-34.43016 20.060895 0 36.319184 15.407921 36.319184 34.43016V493.12128c0 19.014052-16.257266 34.43016-36.319184 34.43016zM915.69276 669.169855H716.470393v82.191954c0 44.051285-35.851533 79.897701-79.901795 79.897701H384.61424c-44.051285 0-79.901795-35.847439-79.901795-79.897701v-82.191954H105.491101c-18.841114 0-34.120099-16.269545-34.120099-36.322254 0-20.060895 15.278985-36.314067 34.120099-36.314067h41.921785v-556.057425c0-58.186214 45.61592-105.537661 101.689007-105.537661h522.979052c56.073086 0 101.689007 47.350424 101.689007 105.537661V596.5335339999999h41.921785c18.841114 0 34.120099 16.253172 34.120099 36.314067 0.001023 20.052708-15.277962 36.322254-34.119076 36.322254z m-538.343994 82.191954c0 4.001127 3.264347 7.261381 7.265474 7.26138h251.953335c4.001127 0 7.265474-3.260254 7.265474-7.26138v-82.191954H377.348766v82.191954z m423.785889-710.8857c0-16.623609-13.036921-30.147624-29.052687-30.147624H249.101893c-16.015765 0-29.052686 13.524015-29.052686 30.147624V596.5335339999999h581.084424v-556.057425z"  horiz-adv-x="1024" />

    
    <glyph glyph-name="rili" unicode="&#42524;" d="M377.948423 785.635403h267.63755v-93.817735H377.948423zM793.222451 785.635403h-30.363541v-93.817735h30.363541c25.864064 0 46.909379-21.044292 46.90938-46.90938v-69.860091h-656.727219V644.908288c0 25.865087 21.044292 46.909379 46.909379 46.90938h30.362518V785.635403h-30.362518c-77.597309 0-140.727115-63.125713-140.727115-140.727115v-562.90846c0-77.600379 63.129806-140.727115 140.727115-140.727115h562.90846c77.597309 0 140.727115 63.126736 140.727115 140.727115V644.908288c-0.001023 77.601402-63.130829 140.727115-140.727115 140.727115z m0-750.543931H230.313991c-25.865087 0-46.909379 21.045315-46.909379 46.909379V481.230462h656.726195v-399.230634c0-25.863041-21.045315-46.908356-46.908356-46.908356zM317.581544 827.8539470000001c-20.726044 0-37.527708-15.750729-37.527709-35.181267v-105.544825h75.054394V792.671657c0 19.430538-16.801664 35.18229-37.526685 35.18229zM693.986309 827.12433c-17.687848-3.320629-29.767977-18.865673-29.767977-35.776832v-104.221689h75.054393V792.671657c0 21.808702-21.164019 38.981826-45.286416 34.452673zM267.901051 408.038486h93.817736v-93.817736h-93.817736zM456.677509 408.038486h93.817735v-93.817736h-93.817735zM459.507974 225.213577h93.817735v-93.817735h-93.817735zM645.45499 408.038486h93.817735v-93.817736h-93.817735zM270.183024 225.213577h93.817735v-93.817735h-93.817735z"  horiz-adv-x="1024" />

    
    <glyph glyph-name="piliangyisong" unicode="&#42525;" d="M851.318102 330.227306v-283.694247c0-7.154957-5.821589-12.976546-12.976546-12.976546H185.647187c-7.163143 0-12.984732 5.821589-12.984732 12.976546V721.482291c0 7.154957 5.821589 12.976546 12.984732 12.976546h233.010915V830.863491H168.338986c-54.18304 0-98.264001-44.080961-98.264001-98.268095v-697.191816c0-54.18611 44.080961-98.268094 98.264001-98.268094h687.309748c54.190203 0 98.275257 44.080961 98.275258 98.268094V330.227306H851.318102zM500.721119 307.07602599999996c14.559601-14.415314 40.842197-11.455913 58.69889 6.599302l230.683917 233.094826c3.937682 3.981684 7.009647 8.401344 9.451256 12.969383l130.266879-120.720456-2.477425 362.194112-385.687176-2.469237 139.81228-129.563868c-2.869351-1.968841-5.649674-4.166903-8.226359-6.770194l-230.683916-233.104035c-17.86181-18.047028-20.528546-44.350091-5.974062-58.761312l64.135716-63.468521z"  horiz-adv-x="1024" />

    
    <glyph glyph-name="shanchu" unicode="&#42526;" d="M512.057817 258.53959L803.462676-32.86629300000004c34.481326-34.481326 90.37738-34.481326 124.858706 0 34.480302 34.481326 34.480302 90.37738 0 124.858706L637.03318 383.39829599999996l291.289225 291.405883c34.480302 34.480302 34.480302 90.376357 0 124.857682-34.481326 34.481326-90.37738 34.481326-124.858705 0L512.057817 508.373659 220.651934 799.662885c-34.481326 34.481326-90.37738 34.481326-124.858706 0-34.476209-34.481326-34.476209-90.37738 0-124.857683l291.293319-291.405883-291.294342-291.405883c-34.476209-34.481326-34.476209-90.37738 0-124.858705 34.481326-34.481326 90.37738-34.481326 124.858706 0l291.405882 291.289226v0.115633z"  horiz-adv-x="1024" />

    
    <glyph glyph-name="shengchengjieanwenshu" unicode="&#42527;" d="M878.082676-22.84710199999995H145.805784c-44.958958 0-81.416288 36.45733-81.416288 81.416288v81.415265c0 44.958958 36.45733 81.416288 81.416288 81.416287V709.430814c0 44.958958 36.45733 81.416288 81.415264 81.416288h569.56302c44.957935 0 81.410148-36.45733 81.410148-81.416288v-488.262366c44.964074 0 81.416288-36.453237 81.416288-81.416288v-81.412194c-0.11768-44.845371-36.569894-81.187067-81.527828-81.187068z m-81.299631 732.277916h-569.561997V180.521702h569.56302V709.430814zM349.167424 587.3677809999999H674.598238c22.482037 0 40.651862-18.170848 40.651862-40.651862 0-22.477944-18.286482-40.646746-40.651862-40.646746H349.167424c-22.476921 0-40.646746 18.169825-40.646745 40.646746-0.001023 22.481014 18.169825 40.651862 40.646745 40.651862z m0-203.367781H674.598238c22.482037 0 40.651862-18.170848 40.651862-40.646746 0-22.481014-18.286482-40.651862-40.651862-40.651862H349.167424c-22.476921 0-40.646746 18.170848-40.646745 40.651862-0.001023 22.360264 18.169825 40.646746 40.646745 40.646746z m0 0"  horiz-adv-x="1024" />

    
    <glyph glyph-name="shengcheng" unicode="&#42528;" d="M879.097284-22.044830000000047H144.789129c-45.083801 0-81.642438 36.558637-81.642438 81.642439v81.641415c0 45.083801 36.558637 81.642438 81.642438 81.642438V712.264349c0 45.083801 36.558637 81.642438 81.641415 81.642438h571.143005c45.082778 0 81.636299-36.558637 81.636299-81.642438v-489.617224c45.088918 0 81.642438-36.554544 81.642438-81.642438v-81.638345c-0.118704-44.968168-36.672224-81.411171-81.755002-81.411172z m-81.524758 734.309179H226.430544v-530.376533h571.143005V712.264349h-0.001023zM348.714611 589.8636240000001H675.047981c22.544459 0 40.764426-18.22099 40.764426-40.764425 0-22.540366-18.337647-40.759309-40.764426-40.759309H348.714611c-22.539342 0-40.759309 18.219967-40.759309 40.759309-0.001023 22.542412 18.219967 40.764426 40.759309 40.764425z m0-203.932645H675.047981c22.544459 0 40.764426-18.22099 40.764426-40.759309 0-22.543436-18.337647-40.764426-40.764426-40.764426H348.714611c-22.539342 0-40.759309 18.22099-40.759309 40.764426-0.001023 22.422685 18.219967 40.759309 40.759309 40.759309z"  horiz-adv-x="1024" />

    
    <glyph glyph-name="shujushangbao" unicode="&#42529;" d="M842.081229 829.099311H179.870112c-45.526893 0-82.776262-37.249369-82.776262-82.776262v-725.694987c0-45.526893 37.249369-82.776262 82.776262-82.776262h662.211117c45.526893 0 82.776262 37.249369 82.776262 82.776262V746.323049c0 45.526893-37.249369 82.776262-82.776262 82.776262zM364.549252 517.414569l122.903167 152.47774c12.941753 16.062837 34.121122 16.062837 47.062876 0L657.403113 517.414569c12.941753-16.065907 6.652514-29.202089-13.96813-29.202089h-83.285868v-121.609709c0-21.279652-22.020526-38.526455-49.172933-38.526455s-49.172933 17.246803-49.172933 38.526455v121.609709h-83.276658c-20.629853 0-26.919093 13.136182-13.977339 29.202089z m272.669146-428.012144H384.73499c-21.704324 0-39.311331 18.543332-39.311331 41.387619 0 22.86066 17.607006 49.666166 39.311331 49.666167h252.483408c21.704324 0 39.310308-26.805506 39.310308-49.666167 0-22.843264-17.605983-41.387619-39.310308-41.387619z m0 126.933971H384.73499c-21.704324 0-39.311331 18.531052-39.311331 41.392736 0 22.86066 17.607006 41.388643 39.311331 41.388642h252.483408c21.704324 0 39.310308-18.527982 39.310308-41.388642 0-22.861684-17.605983-41.392736-39.310308-41.392736z"  horiz-adv-x="1024" />

    
    <glyph glyph-name="shujuqianyi" unicode="&#42530;" d="M885.800963 611.955782H521.184685c-39.607066 0-90.52576 26.614148-113.149013 59.134819l-24.838712 35.718502c-22.623253 32.520671-73.541947 59.127655-113.149013 59.127656H135.07693c-39.622416 0-72.018244-32.411177-72.018244-72.02643v-9.92914c0-39.61423-0.047072-72.018244-0.095167-72.018244-0.047072 0-0.077771-32.411177-0.077772-72.02643v-465.832518c0-39.618323 32.411177-72.030523 72.018244-72.030523h750.895949c39.607066 0 72.018244 32.411177 72.018243 72.030523V539.938562c0 39.606043-32.411177 72.01722-72.01722 72.01722zM746.446102 270.98504L573.658803 131.72943899999996c-18.20871-14.666024-33.094746-7.540743-33.094745 15.824407V241.94054000000006H316.3239c-30.777981 0-55.719023 24.956392-55.719022 55.726186 0 30.765701 24.941042 55.719023 55.719022 55.719022h224.240158V447.747883c0 23.382547 14.885012 30.506804 33.094745 15.84078l172.787299-139.271974c18.200524-14.663978 18.200524-38.664601 0-53.331649z"  horiz-adv-x="1024" />

    
    <glyph glyph-name="shujutongji" unicode="&#42531;" d="M880.948445 608.62492H521.658476c-39.037085 0-89.212858 26.222221-111.498421 58.269102l-24.484647 35.19764c-22.293749 32.04688-72.469522 58.269102-111.49842 58.269101H141.173788c-39.037085 0-70.967308-31.93841-70.967308-70.975494v-9.784854c0-39.037085-0.038886-70.971401-0.085958-70.971401-0.046049 0-0.084934-31.93841-0.084934-70.975495v-459.038788c0-39.037085 31.93841-70.975495 70.975494-70.975494h739.937363c39.037085 0 70.967308 31.93841 70.967308 70.975494V537.653519c0.008186 39.032992-31.930223 70.971401-70.967308 70.971401zM683.998841 254.64079400000003a31.188326 31.188326 0 0 0-3.204995-9.668197c-25.15696-69.261457-91.465155-118.809943-169.423691-118.809943-56.108902 0-98.342796 18.775622-125.533065 53.728692l-28.923749-29.213346-0.940419-1.010003c-2.279926-2.051729-5.297656-3.413749-8.627494-3.498684-7.598049 0.26606-13.70514 6.350638-13.944594 13.96813-0.023536 0.173962-0.023536 0.352017-0.023536 0.47993V264.916834c0 7.992021 6.475482 14.46341 14.471596 14.46341h103.534028c0.132006 0 0.25992 0 0.391927-0.046049a14.356986 14.356986 0 0 0 14.033621-13.956873c-0.085958-2.593058-0.87902-4.977361-2.252297-6.982018-0.920976-1.482771-2.194992-2.7486-3.680832-3.75451l-0.046049-0.023537-31.087019-31.392987c21.214161-20.99722 50.396807-34.012651 82.628905-34.012651 50.246381 0 93.053326 31.783891 109.532649 76.29771 2.7793 14.716166 15.805988 25.862018 31.482015 25.862017 17.703197 0 32.04688-14.208607 32.046881-31.729655a30.688953 30.688953 0 0 0-0.232291-3.700275c0.093121 0.077771 0.201591 0.143263 0.279363 0.228197-0.148379-0.5137-0.325411-1.017166-0.480954-1.528819z m4.575202 94.6241c0-7.984858-6.479575-14.486946-14.47569-14.486945H569.821405c-0.178055 0-0.325411 0-0.479931 0.034792-7.616468 0.240477-13.724583 6.347568-13.964036 13.95278 0.046049 2.759857 0.99056 5.326309 2.523473 7.419993l0.976234 1.188059 0.990561 0.947581 33.076326 32.747845c-10.751878 10.480702-23.508413 18.914792-37.612643 24.66168-13.585413 5.529947-28.431539 8.580422-43.960211 8.580422-50.145074 0-92.824105-31.477922-109.606327-75.685773-0.840134-16.782222-14.812357-30.147624-31.973202-30.147624-17.703197 0-32.050973 14.204513-32.050973 31.726585 0 3.270487 0.499373 6.420223 1.424442 9.385765-0.162706-0.132006-0.352017-0.240477-0.51063-0.38374 22.172999 74.223468 91.00876 128.134309 172.71669 128.134309 35.07382 0 65.63486-6.746658 90.669023-20.087501 14.506389-7.724938 27.154453-17.672498 37.759998-29.798676l24.02723 23.787776v0.046049c1.014096 1.478677 2.284019 2.7486 3.747347 3.684925 1.99647 1.370207 4.40431 2.159176 7.005555 2.249227 7.640004-0.208754 13.770632-6.371104 13.948686-14.037714 0.047072-0.127913 0.047072-0.251733 0.047072-0.390903V349.264894z"  horiz-adv-x="1024" />

    
    <glyph glyph-name="sifagongkai" unicode="&#42532;" d="M921.576771 9.94679199999996h-34.094516V521.434116h34.094516c18.828834-0.008186 34.102702 15.249309 34.110889 34.077119a34.089399 34.089399 0 0 1-16.930601 29.475312L529.487791 823.649182a34.056654 34.056654 0 0 1-34.365692-0.032746L86.977445 584.9527780000001c-16.253172-9.513678-21.713534-30.398334-12.198833-46.650483a34.092469 34.092469 0 0 1 29.379121-16.868179h34.094516v-511.453555h-35.047214c-18.828834 0-34.094516-15.266705-34.094516-34.094516 0-18.828834 15.265682-34.094516 34.094516-34.094516h818.271452c18.820648 0.565888 33.619702 16.280802 33.053813 35.10145-0.540306 17.987676-14.965853 32.454156-32.953529 33.053813z m-646.02139 0.033769H207.36635V521.400347h68.189031v-511.419786z m397.727397 273.439696h-59.931974v-137.177266H561.409828V283.420257h-66.590627c-2.663666-60.389392-32.858362-107.444081-90.563622-141.173276l-7.990998 7.990998c31.068599 36.392862 47.487547 80.783885 49.27731 133.182278h-59.931975v18.645662h61.264319v101.218286h-49.278333v19.978007h267.696901v-19.978007h-51.941999v-101.218286h59.931974v-18.645662z m146.109706-273.439696h-68.189032V521.400347h68.189032v-511.419786zM496.150522 316.71557099999995v-14.650675h65.259306v101.218286h-65.259306v-86.567611z"  horiz-adv-x="1024" />

    
    <glyph glyph-name="tianjia" unicode="&#42534;" d="M690.465113 428.61308h-133.848451v133.848451c0 24.538883-20.077268 44.61615-44.61615 44.61615s-44.61615-20.077268-44.616151-44.61615v-133.848451h-133.84845c-24.538883 0-44.61615-20.077268-44.616151-44.61615s20.077268-44.61615 44.616151-44.61615h133.84845v-133.848451c0-24.538883 20.077268-44.61615 44.616151-44.61615s44.61615 20.077268 44.61615 44.61615v133.848451h133.848451c24.538883 0 44.61615 20.077268 44.61615 44.61615s-20.077268 44.61615-44.61615 44.61615zM511.999488-62.16150300000004c-246.016113 0-446.161503 200.145389-446.161502 446.161503s200.145389 446.161503 446.161502 446.161503 446.161503-200.145389 446.161503-446.161503-200.145389-446.161503-446.161503-446.161503z m0 803.090705c-196.808388 0-356.929202-160.120814-356.929202-356.929202s160.120814-356.929202 356.929202-356.929202c196.807365 0 356.929202 160.120814 356.929202 356.929202s-160.121837 356.929202-356.929202 356.929202z"  horiz-adv-x="1024" />

    
    <glyph glyph-name="tixing" unicode="&#42535;" d="M512.376577 830.987311c-245.859547 0-447.01494-201.156416-447.01494-447.01494 0-245.854431 201.156416-447.009823 447.01494-447.009824 245.854431 0 447.009823 201.155393 447.009823 447.009824 0 245.858524-201.155393 447.01494-447.009823 447.01494z m0-826.976718c-210.096019 0-379.962801 169.865759-379.962802 379.960754 0 210.096019 169.865759 379.961778 379.962802 379.961778 210.094996 0 379.960755-169.865759 379.960754-379.961778 0.001023-210.094996-169.865759-379.960755-379.960754-379.960754zM512.376577 643.3487700000001c-25.335015 0-45.883003-20.538779-45.883004-45.886074 0-25.340131 20.547988-45.879933 45.883004-45.879933 25.347295 0 45.89119 20.539802 45.891189 45.879933 0 25.347295-20.543895 45.886073-45.891189 45.886074zM512.376577 491.042945c-21.191648 0-38.431288-17.23964-38.431288-38.440497v-287.466154c0-21.191648 17.23964-38.427194 38.431288-38.427195 21.198811 0 38.443567 17.235546 38.443567 38.427195v287.467177c0 21.195741-17.243733 38.439474-38.443567 38.439474z"  horiz-adv-x="1024" />

    
    <glyph glyph-name="suijifenan" unicode="&#42536;" d="M297.657772 645.944897c-25.864064 0-47.452755-21.570271-47.452755-47.396473 0-25.811876 21.588691-47.393403 47.452755-47.393403h377.654222c25.802666 0 47.393403 21.590737 47.393404 47.393403 0 25.814945-21.590737 47.396473-47.393404 47.396473H297.657772zM577.270051 395.834536c0 25.814945-21.588691 47.394427-47.39238 47.394427H297.657772c-25.864064 0-47.452755-21.570271-47.452755-47.394427 0-25.813922 21.588691-47.393403 47.452755-47.393403h232.219899c25.802666 0 47.39238 21.590737 47.39238 47.393403zM440.847985 35.08123899999998c-0.291642 0-0.581238-0.00921-0.966001-0.027629H174.243975c-4.945639 0-8.969279 4.022617-8.969279 8.967232V730.590739c0 4.949732 4.02364 8.975419 8.969279 8.975419h618.155738c4.948709 0 8.974395-4.025687 8.974395-8.995885l0.054236-26.299992v-261.757633c0-28.307719 21.023826-51.468209 46.718021-51.468208h2.655479c25.694195 0 46.716998 23.160489 46.716998 51.468208V712.131319c0 0.187265-0.022513 0.36839-0.025582 0.556679l0.025582 17.902741c0 57.96825-47.159066 105.129362-105.124246 105.129363H174.243975c-57.969273 0-105.130386-47.161113-105.130386-105.129363v-685.995822c0-57.961086 47.161113-105.114013 105.130386-105.114013h0.001023l266.632663 0.032746c26.330692 0.01228 47.753607 21.445428 47.753607 47.778166 0 26.349111-21.435195 47.789423-47.783283 47.789423zM925.446915 85.550701h-15.520485c-7.060813 42.588981-38.909172 76.659961-79.755462 76.65996h-61.156872v17.036002h33.097816c15.494902 0 26.527167 10.862395 26.527167 26.358321v84.171028c0 15.495926-11.032264 34.272571-26.527167 34.272571h-84.172051c-15.495926 0-34.103726-18.777669-34.103726-34.272571v-84.171028c0-15.495926 18.6078-26.358321 34.103726-26.358321h34.039257v-17.036002h-62.09422c-40.847314 0-77.220732-34.07098-85.368296-76.65996h-22.771633c-15.495926 0-25.674753-9.413394-25.674753-24.90932v-84.171028c0-15.495926 10.17985-35.721573 25.674753-35.721573h84.172051c15.495926 0 34.955116 20.22667 34.955117 35.721573V60.641381000000024c0 15.495926-19.459191 24.909319-34.955117 24.90932h-32.41834c7.670703 34.07098 31.064506 42.588981 56.386218 42.58898H830.170968c25.322735 0 44.803415-8.518001 51.049676-42.58898h-39.94578c-15.495926 0-29.671787-9.413394-29.671787-24.90932v-84.171028c0-15.495926 14.174837-35.721573 29.671787-35.721573h84.172051c15.495926 0 30.959106 20.22667 30.959106 35.721573V60.641381000000024c0 15.495926-15.464203 24.909319-30.959106 24.90932z"  horiz-adv-x="1024" />

    
    <glyph glyph-name="tongxunlu" unicode="&#42537;" d="M707.904297 381.195118c63.917752 0 115.920126 52.002374 115.920126 115.924219 0 63.917752-52.002374 115.920126-115.920126 115.920126-63.921845 0-115.924219-52.002374-115.924219-115.920126 0-63.921845 52.002374-115.924219 115.924219-115.924219z m0 171.538864c30.667463 0 55.614645-24.947182 55.614645-55.614645 0-30.667463-24.947182-55.617715-55.614645-55.617715-30.667463 0-55.618738 24.950252-55.618739 55.617715 0.001023 30.667463 24.951275 55.614645 55.618739 55.614645zM707.90532 350.322993c-136.369877 0-247.317759-114.50387-247.317758-255.244288h52.40044c0 111.848391 87.438445 202.843848 194.917318 202.843848 107.472733 0 194.912202-90.995457 194.912202-202.843848h52.40044c0 140.740418-110.942765 255.244288-247.312642 255.244288zM407.639652 422.294165c88.700181 0 160.864758 72.164576 160.864758 160.870897 0 88.700181-72.164576 160.864758-160.864758 160.864758-88.706321 0-160.870898-72.164576-160.870897-160.864758 0-88.706321 72.164576-160.870898 160.870897-160.870897z m0 238.047627c42.557258 0 77.17673-34.619472 77.17673-77.17673 0-42.558281-34.619472-77.18287-77.17673-77.18287-42.558281 0-77.18287 34.624589-77.18287 77.18287 0 42.557258 34.624589 77.17673 77.18287 77.17673zM535.003412 353.97210299999995c-39.416731 16.338107-82.352613 25.480324-127.36376 25.480324-189.244108 0-343.208712-158.90001-343.208712-354.209254h72.718185c0 155.214061 121.340579 281.491069 270.490527 281.491069 26.328645 0 51.760874-4.001127 75.833129-11.355629 13.840216 22.144346 31.302937 41.901319 51.530631 58.59349z"  horiz-adv-x="1024" />

    
    <glyph glyph-name="wenjian" unicode="&#42538;" d="M885.434619 614.423997h-362.659716c-39.394219 0-90.039689 26.470885-112.542193 58.818617l-24.705681 35.527144c-22.502503 32.346709-73.147974 58.810431-112.542193 58.810431h-134.24754c-39.410592 0-71.631434-32.237215-71.631434-71.639621v-9.875928c0-39.402405-0.047072-71.631434-0.093121-71.631434-0.047072 0-0.078795-32.237215-0.078794-71.63962v-463.334627c0-39.409568 32.237215-79.648015 71.631434-79.648015h746.869238c39.395242 0 71.631434 40.238446 71.631434 79.648015V542.792563c0 39.394219-32.237215 71.631434-71.631434 71.631434z"  horiz-adv-x="1024" />

    
    <glyph glyph-name="wenshuxiaodui" unicode="&#42539;" d="M325.291133 639.356852c-37.270858 0-65.669652-44.75839-33.469276-82.540901 6.835685-8.019651 17.119913-12.32163 27.65792-12.32163h389.453966c10.524704 0 20.797675 4.287653 27.64257 12.281721 32.317033 37.743626 3.861958 82.579787-33.343409 82.579787H325.291133zM590.976214 424.2364c-6.853082 7.974625-17.115819 12.249999-27.630291 12.249998H319.521732c-10.526751 0-20.801768-4.2897-27.644617-12.288884-32.28838-37.742603-3.87833-82.5716 33.414018-82.5716h232.39693c37.225833 0 65.689095 44.906769 33.288151 82.610486zM477.841527 27.598824000000036c-8.733918 0.358157-8.330736 0.491187-10.217712 0.400113H192.806749V733.048721H829.372789l0.073678-35.322483v-261.957177c0-28.329209 21.039175-51.508117 46.753837-51.508118h2.657526c25.714661 0 46.752814 23.177885 46.752814 51.508118v269.825378c0 0.187265-0.022513 0.369414-0.025583 0.556679l0.025583 17.916044c0 58.012252-47.194882 105.210203-105.205087 105.210204H188.918185c-51.001581 0-92.346221-41.34464-92.346221-92.346221v-712.231347c0-51.001581 41.34464-92.346221 92.346221-92.346222h12.866029l266.835278 0.032746c37.182854 0.016373 64.585971 42.717917 35.774785 81.649602-6.182816 8.352225-16.168238 13.137205-26.55275 13.5629zM868.739379 285.075966c-60.014862-51.977815-112.967888-120.200616-143.362129-162.658613-14.09195-19.684318-42.943045-20.695345-58.425667-2.084475l-29.855982 35.887349c-12.900821 15.506159-35.851533 17.804505-51.570539 5.164626-18.435884-14.82566-18.372439-42.812061 0.072655-57.626465 27.103288-21.767769 56.871265-50.186006 84.723613-85.566818 13.140275-16.691147 38.387285-16.806781 51.234895 0.110517 52.147684 68.667939 199.738114 221.075071 200.651926 240.555751 1.329275 28.353768-32.012088 44.801369-53.468772 26.218128z"  horiz-adv-x="1024" />

    
    <glyph glyph-name="wenshupiliangsongda" unicode="&#42540;" d="M329.523527 638.639514c-36.673248 0-64.615647-44.040029-32.93204-81.215719 6.725168-7.891737 16.844643-12.124132 27.213805-12.124132h383.202589c10.355859 0 20.464077 4.218068 27.199478 12.085246 31.798217 37.137829 3.800559 81.254605-32.80822 81.254605H329.523527zM590.943468 426.97272c-6.742565 7.846712-16.84055 12.053524-27.186175 12.053524H323.846224c-10.357905 0-20.468171-4.220115-27.201525-12.091386-31.769564-37.136805-3.815909-81.246419 32.877805-81.246419h228.665956c36.630269 0 64.636113 44.185338 32.755008 81.284281zM479.626173 36.702155999999945c-8.593725 0.353041-8.196683 0.484024-10.053983 0.39295H199.165574V730.828147h626.347304l0.071632-34.755572v-257.752412c0-27.874861 20.701484-50.681286 46.003753-50.681286h2.614547c25.301246 0 46.00273 22.806425 46.002731 50.681286V703.813886c0 0.184195-0.022513 0.363274-0.025583 0.547469l0.025583 17.628496c0 57.081043-46.436612 103.520725-103.515609 103.520725H195.339432c-50.182936 0-90.863451-40.680515-90.863451-90.863451v-700.79897c0-50.182936 40.680515-90.863451 90.863451-90.863451h12.659321l262.552741 0.031723c36.586267 0.016373 63.549362 42.032302 35.199687 80.338746-6.083555 8.220219-15.908318 12.927427-26.125008 13.346983zM901.717468 168.72400500000003c0 81.384565-66.346057 147.357116-148.187018 147.357116-81.84096 0-148.185994-65.972551-148.185994-147.357116 0-2.572592 0.254803-5.078669 0.391927-7.602142-0.12689-1.243317-0.391926-2.451842-0.391927-3.735067 0-90.685395 136.786363-193.413058 136.786363-193.413058s11.400654-8.500605 22.797216 0c11.398608 8.506744 136.789433 102.725616 136.789433 193.413058 0 1.283226-0.268106 2.490727-0.391927 3.735067 0.137123 2.52245 0.391926 5.02955 0.391927 7.602142z m-148.187018-56.679907c-31.482015 0-56.997132 25.372877-56.997132 56.678884 0 31.29782 25.514093 56.672744 56.997132 56.672744s56.992015-25.375947 56.992016-56.672744c0-31.30703-25.508977-56.678884-56.992016-56.678884z m0 0"  horiz-adv-x="1024" />

    
    <glyph glyph-name="xitongguanli" unicode="&#42541;" d="M428.083264 461.202313l-101.053534-169.789011-12.137435 76.812433c8.087189 4.040013 14.159488 14.149255 14.159488 24.257473 0 16.167215-12.137435 28.297486-28.297486 28.297487-16.180518 0-28.304649-12.130272-28.30465-28.297487 0-10.108219 6.066159-20.217461 14.145162-24.257473l-12.123109-74.794473-101.066836 167.770028c-56.595996-24.25338-97.016591-64.679092-105.10378-111.175056h-2.02103V103.43604600000003h2.02103c10.108219-20.211321 111.168915-36.388768 234.467079-36.388768 123.292024 0 222.343971 16.177448 234.468103 36.388768h2.02103V350.02725799999996h-2.02103c-12.123109 46.495964-52.55803 86.921675-109.153002 111.175055zM305.682539 505.356952c54.511521 0 98.697883 44.189432 98.697883 98.697883 0 54.505381-44.186362 98.69379-98.697883 98.693789-54.505381 0-98.69072-44.189432-98.690719-98.693789 0-54.508451 44.186362-98.697883 98.690719-98.697883zM879.75527 694.852794H425.598676c16.180518-23.192212 26.405393-50.084699 28.794813-78.957283h346.404498c43.430138 0 78.957283-35.530215 78.957283-78.95626v-236.866732c0-43.427068-35.527145-78.95626-78.957283-78.95626H595.513554v-78.957283h284.241716c43.422975 0 78.95626 35.530215 78.95626 78.957283V615.896534c0 43.426045-35.533284 78.95626-78.95626 78.95626zM836.481697 468.630493c0.128937-0.690732 3.069919-16.59598 3.069919-29.134551 0-12.800537-3.042289-28.970822-3.069919-29.134551-1.736551-9.166777-7.311523-15.115256-14.437827-15.115256h-1.245363c-19.897166 0-36.078707-16.340153-36.078707-36.44198 0-6.477528 3.110851-13.843286 3.151783-13.910825 3.567245-8.084119 0.816598-18.005073-6.840802-23.373337l-37.650505-20.945031c-2.348488-1.014096-4.900613-1.542122-7.589862-1.542122-5.792936 0-11.416004 2.423189-15.09172 6.520507-4.091178 4.516874-18.256806 17.444301-29.324885 17.444301-10.224876 0-24.029276-11.521404-29.134551-17.120936-3.628644-3.994987-9.265014-6.381337-14.996553-6.381338-2.749624 0-5.329379 0.523933-8.182356 1.801019l-36.269042 20.520359c-7.195889 5.071506-9.917884 15.027252-6.344498 23.113417 0.033769 0.064468 3.14462 7.362688 3.14462 13.873986 0 20.071128-16.180518 36.44198-36.078707 36.44198h-1.50426c-6.875594 0-12.443403 5.921873-14.179954 15.115256-0.12996 0.687662-3.069919 16.663518-3.069918 29.134551 0 12.508895 2.939959 28.478612 3.069918 29.134551 1.735527 9.193383 7.263427 15.126512 14.396895 15.126512h1.245364c19.911492 0 36.084846 16.32992 36.084846 36.431747 0 6.575766-3.110851 13.845333-3.151783 13.910824-3.560082 8.087189-0.810459 18.031679 6.875595 23.403013l38.338166 21.180392c2.348488 1.014096 4.900613 1.50733 7.583723 1.50733 5.737678 0 11.333116-2.328022 15.002692-6.255471 4.02978-4.257977 17.930371-16.433274 28.672016-16.433274 10.633175 0 24.478508 11.916401 28.474518 16.102746 3.669576 3.832282 9.231245 6.122441 14.894222 6.122441 2.749624 0 5.364171-0.523933 8.216126-1.766226l36.990472-20.820188c7.202029-5.074575 9.952676-14.993482 6.378268-23.107277-0.027629-0.064468-3.13848-7.368828-3.138481-13.883196 0-20.063965 16.208147-36.431747 36.077684-36.431747h1.49812c6.903224 0.038886 12.478196-5.89322 14.214746-15.087626z m-92.053555-33.126469c0 29.067013-23.436782 52.704362-52.204989 52.704363-28.773324 0-52.211129-23.638373-52.211129-52.704363 0-29.070082 23.410176-52.701293 52.211129-52.701292 28.808116 0 52.204989 23.63121 52.204989 52.701292z"  horiz-adv-x="1024" />

    
    <glyph glyph-name="xiazai" unicode="&#42542;" d="M477.836411 326.26506400000005c17.508769-21.745257 50.829665-21.745257 68.289316 0L707.537953 526.594649c11.474332 14.21577 1.25048 35.266202-17.057491 35.266201h-71.77879c-28.015054 0-50.729381 22.713304-50.729381 50.730405v143.907551c0 15.313777-12.520151 27.78481-27.986401 27.78481h-56.016805c-15.461133 0-27.934213-12.418844-27.934213-27.78481v-143.907551c0-28.0171-22.712281-50.730405-50.729381-50.730405h-71.776743c-18.36016 0-28.534893-21.050432-17.062608-35.266201L477.836411 326.26506400000005zM855.906096 400.350386H703.726138a39.928385 39.928385 0 0 1-31.092136-14.876825L550.019407 233.29565000000002c-19.452028-24.226774-56.574506-24.226774-76.080769 0L351.359858 385.469468a39.930431 39.930431 0 0 1-31.095205 14.880918H168.092881c-56.19486 0-102.173031-45.977147-102.173031-102.172007v-272.856411c0-22.052249 17.877159-39.928385 39.928385-39.928385h812.301483c22.052249 0 39.928385 17.877159 39.928385 39.928385V298.17735600000003c0.001023 56.195883-45.977147 102.173031-102.172007 102.17303z"  horiz-adv-x="1024" />

    
    <glyph glyph-name="xinzeng" unicode="&#42543;" d="M807.708374-65.299983H216.290603c-82.999342 0-150.522202 67.521836-150.522202 150.522202V676.638967c0 82.999342 67.521836 150.522202 150.522202 150.522202h591.417771c82.999342 0 150.522202-67.521836 150.522202-150.522202V85.22119599999996c-0.001023-82.999342-67.52286-150.521179-150.522202-150.521179zM216.290603 738.618577c-34.172287 0-61.97961-27.807323-61.97961-61.97961V85.22119599999996c0-34.171264 27.807323-61.97961 61.97961-61.97961h591.417771c34.172287 0 61.97961 27.807323 61.97961 61.97961V676.638967c0 34.172287-27.807323 61.97961-61.97961 61.97961H216.290603zM689.080579 425.204447H556.266691V558.018336c0 24.349571-19.921725 44.271296-44.271296 44.271296s-44.271296-19.921725-44.271296-44.271296V425.204447H334.911234c-24.349571 0-44.271296-19.921725-44.271296-44.271296 0-24.349571 19.921725-44.271296 44.271296-44.271296h132.813888v-132.813888c0-24.349571 19.921725-44.271296 44.271296-44.271296s44.271296 19.921725 44.271296 44.271296v132.814912h132.813889c24.349571 0 44.271296 19.921725 44.271296 44.271296-0.001023 24.348548-19.923772 44.270273-44.27232 44.270272z"  horiz-adv-x="1024" />

    
    <glyph glyph-name="yuding" unicode="&#42544;" d="M511.942695 830.987311c-247.104911 0-447.448822-200.343911-447.448822-447.448822 0-247.099794 200.343911-447.443705 447.448822-447.443705 247.099794 0 447.443705 200.343911 447.443705 447.443705 0 247.104911-200.343911 447.448822-447.443705 447.448822z m0-783.003204c-185.021947-0.030699-335.590198 150.48127-335.590198 335.553359 0 185.021947 150.567227 335.614757 335.590198 335.614757 185.045483 0 335.584058-150.59281 335.584058-335.584058 0-185.076182-150.537552-335.584058-335.584058-335.584058zM567.872518 406.696931V607.2629c0 30.902824-25.031093 55.929824-55.960522 55.929823-30.928407 0-55.929824-25.027-55.929824-55.929823V383.37168999999994c0.025583-15.407921 6.290263-29.336142 16.441461-39.402405l111.808482-111.834065c10.907421-10.933003 25.254174-16.386202 39.570227-16.386202 14.316054 0 28.637224 5.453199 39.543621 16.359596 21.813818 21.8701 21.813818 57.270355 0 79.113849l-95.473445 95.474468z"  horiz-adv-x="1024" />

    
    <glyph glyph-name="zhidingjifenan" unicode="&#42545;" d="M927.627581 129.88237200000003h-16.092514c-7.321756 43.439348-40.34487 69.502957-82.699514 69.502957h-65.194837v26.063609h36.100196c16.066931 0 33.402761 7.746428 33.402761 23.814381v87.278809c0 16.067954-17.33583 27.912723-33.402761 27.912724h-87.278809c-16.067954 0-27.012214-11.844769-27.012214-27.912724v-87.278809c0-16.067954 10.94426-23.814382 27.012214-23.814381h25.115004v-26.063609h-54.206576c-42.354644 0-80.07064-26.063609-88.52008-69.502957h-23.611767c-16.068977 0-24.794709-14.865569-24.794709-30.9325v-87.279832c0-16.066931 8.726755-20.793582 24.794709-20.793582h87.278809c16.067954 0 35.619242 4.726651 35.619242 20.793582v87.279832c0 16.066931-19.551288 30.9325-35.619242 30.9325h-33.614585c7.953136 34.751478 32.210609 43.439348 58.467623 43.439348h145.465022c26.258037 0 46.457078-8.68787 52.934607-43.439348h-41.420365c-16.067954 0-33.269731-14.865569-33.269731-30.9325v-87.279832c0-16.066931 17.201777-20.793582 33.269731-20.793582h87.278809c16.068977 0 27.145244 4.726651 27.145243 20.793582v87.279832c-0.001023 16.065907-11.07729 30.9325-27.146266 30.9325zM476.974787 441.622372c105.972567 0 192.189184 86.21764 192.189184 192.198394 0 105.972567-86.21764 192.190207-192.189184 192.190207-105.980753 0-192.198393-86.21764-192.198393-192.190207 0-105.980753 86.21764-192.198393 192.198393-192.198394z m0 284.403399c50.843992 0 92.206028-41.361013 92.206028-92.206029s-41.361013-92.213191-92.206028-92.213191c-50.846038 0-92.213191 41.367153-92.213191 92.213191 0 50.845015 41.367153 92.206028 92.213191 92.206029zM624.56317 357.66828499999997c-45.825698 19.22997-95.565543 29.893844-147.592476 29.893844-225.819119 0-409.53328-198.791555-409.533281-443.141726h99.984179c0 189.215456 138.865721 343.156524 309.550125 343.156524 43.277666 0 84.493369-9.933233 121.93512-27.792997 4.485151 34.583656 13.264095 67.470671 25.656333 97.884355z"  horiz-adv-x="1024" />

    
    <glyph glyph-name="xiaoxifenlei" unicode="&#42546;" d="M870.596679 785.616984H153.401274c-46.6556 0-84.827991-38.172391-84.827991-84.827991V215.66203700000005c0-51.320852 41.990347-93.311199 93.311199-93.311199h57.142442c-9.618055-32.010041-36.465516-106.938568-83.121116-132.378983 0 0 239.664452 25.043373 312.729537 132.378983h421.961334c46.6556 0 84.827991 38.172391 84.827991 84.827991V700.788993c0 46.6556-38.172391 84.827991-84.827991 84.827991zM302.339398 427.650149c-45.476751-13.286608-87.831394 29.057803-74.560136 74.534554 5.627161 19.284205 21.12411 34.783201 40.405245 40.418548 45.480844 13.292748 87.843674-29.0445 74.568323-74.528414-5.630231-19.287275-21.128203-34.790364-40.413432-40.424688z m238.594073 1.38658c-37.557384-13.801331-74.095555 11.203156-80.31214 45.714158-4.782933 26.549679 12.434194 51.715849 37.756929 61.018725 37.555337 13.796214 74.088392-11.205203 80.308047-45.711088 4.78498-26.549679-12.431124-51.716872-37.752836-61.021795z m230.170217-1.384533c-45.479821-13.293771-87.839581 29.05678-74.56423 74.5366 5.629207 19.285229 21.12718 34.784224 40.411385 40.416502 45.477774 13.284561 87.832418-29.045523 74.563206-74.524321-5.629207-19.288299-21.126156-34.792411-40.410361-40.428781z"  horiz-adv-x="1024" />

    
    <glyph glyph-name="xiugai" unicode="&#42547;" d="M177.116907 133.08736699999997l39.22128 157.62497 117.852128-118.260427-157.073408-39.364543z m186.767707 68.923765L246.028393 320.255187l353.535918 354.753653L717.392904 556.759669 363.884614 202.01113199999998z m382.973368 384.30776L629.018134 704.566016l88.37477 88.689948c16.280802 16.325827 42.653449 16.325827 58.918901 0l58.921971-59.130725c16.268522-16.317641 16.268522-42.787502 0-59.117422l-88.375794-88.688925z m169.756266-623.819738H107.385752c-23.119557 0.004093-41.857317 18.84316-41.857316 42.086537 0 23.246447 18.73776 42.085514 41.857316 42.085514h809.228496c23.12058 0 41.857317-18.839067 41.857316-42.085514 0-23.242354-18.736736-42.081421-41.857316-42.081421v-0.005116z m0 0"  horiz-adv-x="1024" />

    
    <glyph glyph-name="shuaxin" unicode="&#42496;" d="M940.51868 254.535393a77.587076 77.587076 0 0 0-7.970532-24.058952C869.940229 58.116885000000025 704.939267-65.184349 510.936785-65.184349c-139.623991 0-244.718561 46.720068-312.38673 133.702118l-71.985498-72.699766-2.330068-2.515286c-5.692652-5.102205-13.196557-8.487302-21.48636-8.704243-18.888186 0.662079-34.093493 15.804964-34.69315 34.766828-0.052189 0.424672-0.052189 0.868787-0.052189 1.190105V280.105768c0 19.886933 16.104793 35.992749 36.018332 35.992749H361.646644c0.352017 0 0.652869 0 0.983397-0.11461 19.085684-0.465604 34.384112-15.669888 34.921347-34.734082-0.206708-6.452969-2.193968-12.384052-5.599531-17.37267-2.297322-3.689019-5.454222-6.841825-9.149381-9.340739l-0.12382-0.062421-77.356832-78.117149c52.786227-52.253084 125.402081-84.642772 205.615984-84.642772 125.038808 0 231.562936 79.095429 272.569886 189.867302 6.91448 36.619012 39.34203 64.357773 78.340229 64.357773 44.061518 0 79.758532-35.355229 79.758532-78.961376 0-3.120061-0.216941-6.183839-0.578168-9.205662 0.227174 0.190335 0.496304 0.356111 0.692778 0.568958-0.375553-1.285273-0.820692-2.537799-1.202385-3.805676z m11.384282 235.470943c0-19.872606-16.125259-36.050054-36.018332-36.050054H656.396691c-0.445138 0-0.818645 0-1.200338 0.082887-18.950607 0.599657-34.155914 15.798824-34.755572 34.724873 0.12382 6.866385 2.473331 13.253862 6.2831 18.464537l2.432399 2.955308 2.463098 2.359744 82.314751 81.492013c-26.755364 26.082028-58.509579 47.066969-93.605912 61.370742-33.803897 13.765515-70.753437 21.35333-109.390409 21.353331-124.781958 0-231.004211-78.329996-272.767384-188.340529-2.079358-41.763173-36.846186-75.023694-79.5508-75.023694-44.060495 0-79.758532 35.351136-79.758532 78.951143a78.034261 78.034261 0 0 0 3.550873 23.354917c-0.424672-0.326435-0.890276-0.595564-1.274017-0.952698 55.166437 184.703699 226.460732 318.862211 429.79986 318.862212 87.281879 0 163.335019-16.788361 225.631854-49.985438 36.090986-19.225877 67.565838-43.977607 93.958952-74.153884l59.792804 59.193147v0.118704c2.52552 3.679809 5.681396 6.835685 9.325389 9.16473 4.967128 3.41068 10.959609 5.377474 17.428952 5.600555 19.013029-0.523933 34.269501-15.85613 34.714639-34.936697 0.113587-0.316202 0.113587-0.626263 0.113587-0.973164v-257.632685z"  horiz-adv-x="1024" />

    
    <glyph glyph-name="shujushangbao-copy" unicode="&#58910;" d="M842.081229 829.099311H179.870112c-45.526893 0-82.776262-37.249369-82.776262-82.776262v-725.694987c0-45.526893 37.249369-82.776262 82.776262-82.776262h662.211117c45.526893 0 82.776262 37.249369 82.776262 82.776262V746.323049c0 45.526893-37.249369 82.776262-82.776262 82.776262zM364.549252 517.414569l122.903167 152.47774c12.941753 16.062837 34.121122 16.062837 47.062876 0L657.403113 517.414569c12.941753-16.065907 6.652514-29.202089-13.96813-29.202089h-83.285868v-121.609709c0-21.279652-22.020526-38.526455-49.172933-38.526455s-49.172933 17.246803-49.172933 38.526455v121.609709h-83.276658c-20.629853 0-26.919093 13.136182-13.977339 29.202089z m272.669146-428.012144H384.73499c-21.704324 0-39.311331 18.543332-39.311331 41.387619 0 22.86066 17.607006 49.666166 39.311331 49.666167h252.483408c21.704324 0 39.310308-26.805506 39.310308-49.666167 0-22.843264-17.605983-41.387619-39.310308-41.387619z m0 126.933971H384.73499c-21.704324 0-39.311331 18.531052-39.311331 41.392736 0 22.86066 17.607006 41.388643 39.311331 41.388642h252.483408c21.704324 0 39.310308-18.527982 39.310308-41.388642 0-22.861684-17.605983-41.392736-39.310308-41.392736z"  horiz-adv-x="1024" />

    


  </font>
</defs>
</svg>
